<?xml version="1.0" encoding="utf-8"?>
<!-- Generator: Adobe Illustrator 19.1.0, SVG Export Plug-In . SVG Version: 6.00 Build 0)  -->
<!DOCTYPE svg PUBLIC "-//W3C//DTD SVG 1.1//EN" "http://www.w3.org/Graphics/SVG/1.1/DTD/svg11.dtd">
<svg version="1.1" id="图层_1" xmlns="http://www.w3.org/2000/svg" xmlns:xlink="http://www.w3.org/1999/xlink" x="0px" y="0px"
	 viewBox="0 0 600 600" style="enable-background:new 0 0 600 600;" xml:space="preserve">
<style type="text/css">
	.st0{enable-background:new    ;}
	.st1{fill:#CF4646;}
	.st2{fill:#FFFFFF;}
</style>
<g class="st0">
	<path class="st1" d="M151.4,284.5c-5,0.5-7,0.9-8.7,2.4c-2.5,2.2-3.8,5.1-3.8,15.5v68.2h-2.4l-58.1-72.3v51.1
		c0,13.6,2.1,15.8,12.3,17.3v2.5H59.8v-2.5c10.8-1.2,12.8-3.2,12.8-17.3v-58c-4.3-5.4-6.3-7-12.8-7V282h22.4l50.8,63.6v-44.8
		c0-6.7-0.5-10.7-2.5-12.9c-2.2-2.5-4.6-2.8-10.4-3.4V282h31.2V284.5z"/>
</g>
<g class="st0">
	<path class="st1" d="M232.9,342.6c-8.8,20.5-22.9,28.5-37.5,28.5c-33.8,0-37.1-18.2-37.1-25.8c0-10.5,8.8-20.3,19.5-22.1
		c-9.4-2.7-15-10.2-15-18.4c0-13.3,13.3-25.6,37.9-25.6c13.1,0,30.5,4.9,30.5,20.1c0,5.5-4.9,8.2-9.2,8.2c-4.7,0-8.6-3.3-8.6-8.2
		c0-3.7,0.8-4.7,0.8-6.6c0-5.3-6.1-7.8-17-7.8c-11.1,0-18.2,8.8-18.2,18.9c0,9,5.5,16.6,16.4,16.6c5.9,0,7-1.8,11.9-1.8
		c5.1,0,7.4,2,7.4,4.1c0,2.5-3.1,5.1-9.4,5.1c-3.3,0-4.5-1.2-8.6-1.2c-8.6,0-20.9,4.9-20.9,17.2c0,11.3,10.4,17.4,20.5,17.4
		c14.5,0,24.2-7.2,33.8-20.5L232.9,342.6z"/>
</g>
<g class="st0">
	<path class="st1" d="M251.2,477.8l-31.4-40.6l-7.4,0.3V463c0,10,1.6,11.6,11.7,12.3v2.5h-36.4v-2.5c9.9-0.8,11.2-2.2,11.2-13.8
		v-56.2c0-9.7-1.1-11.3-11.2-12.1v-2.5h35.8c12.5,0,21.9,3.2,27.5,7.8c4.3,3.6,6.5,10,6.5,15.8c0,11.5-7.4,19.1-23.8,21.6l26.3,33.3
		c3.8,4.9,6.6,5.7,12.4,6.2v2.5H251.2z M212.5,432.6c12.6-0.3,17.3-1.2,23.3-4.5c4.7-2.6,7.5-8.4,7.5-15c0-11.9-7.8-17.7-24.1-17.7
		c-4.5,0-6.7,0.9-6.7,5.5V432.6z"/>
	<path class="st1" d="M356.7,393c-5.3,0.1-8.3,2.2-12.1,12l-29.2,74.2h-2l-32.1-71.7c-5.7-12.8-7.6-14.4-14.2-14.5v-2.5h34.9v2.5
		l-3.7,0.3c-4.2,0.3-5.9,1.4-5.9,4.1c0,2.1,1.2,5.3,5.1,14.1l20,45.1l19.4-48.6c1.6-4,2.5-7.2,2.5-9.5c0-5.1-4.2-4.9-9.5-5.4v-2.5
		h26.9V393z"/>
</g>
<g id="XMLID_1_">
	<g>
		<path class="st2" d="M547.3,313.6c0,0,0.1,0,0.1,0.1C547.4,313.7,547.4,313.7,547.3,313.6z M546,313c-0.6-0.3-1.2-0.6-1.6-0.9
			c8.3,3.8,20.6-0.8,19.6-11.1c-0.6-5.7-3.6-7.5-8.9-6.9c-1.6,0.2-15.8,2.9-15.9,1c0-0.9,11.6-4,12.7-4.5c3.2-1.4,6.3-3.1,8.4-6
			c4.4-6.3-0.7-13.5-2.8-19.7c-0.4-1.3-0.8-2.6-1-4c-2.1-11.3,1.2-24.9-5.7-34.3l2.4-0.5c1.1,1.5,2.1,3.2,2.9,5
			c4.3,10.9,0.8,22.3,4.1,33.3c1.5,5,4.4,9.5,4.6,14.8c0.1,2.5-1,4.2-1.3,6.5c-0.4,2.8,1.5,5.6,1.1,8.2c2.5,3.2,3,8.3,1.9,12.1
			c-1.5,5-6.1,6.3-8.5,10.3c-2.1,3.5-1.5,7.9-2,11.8c0,0.3-0.1,0.6-0.1,0.9l-2.5-0.4c0.4-2.2,0.2-4.5-0.7-6.8c-1.2-3-2.7-4-5.1-5.4
			c-1.2-0.7-3.2-1.2-3.8-2.6c0,0-1.7-2.8,0.2-1.8c0,0,0,0,0,0c0,0,0.1,0,0.1,0.1C544.8,312.3,545.5,312.7,546,313z"/>
		<path class="st1" d="M564.5,293.8C564.7,292.5,567,297,564.5,293.8L564.5,293.8z"/>
		<path class="st1" d="M564,301c1,10.4-11.3,15-19.6,11.1c-0.1,0-0.2-0.1-0.3-0.2c0,0-0.1,0-0.1,0c0,0-0.1,0-0.1-0.1c0,0,0,0,0,0
			c-1.9-1-0.2,1.9-0.2,1.8c0.6,1.4,2.7,1.9,3.8,2.6c2.4,1.5,4,2.4,5.1,5.4c0.9,2.3,1.1,4.6,0.7,6.8c-0.7,4.3-3.3,8.3-6.5,11.3
			c-4.3,4-12.9,9.1-18.6,4.3c-1.1-1-2.3-2.4-3.3-4.1c-2-3.4-3.4-7.7-2.7-10.7c0.8-3.4,3-6.4,5.2-9.4c2-2.6,4-5.3,5-8.3
			c2.4-6.9,2.1-14.7-2-21c-3-4.6-8-7.6-13-9.6c-7.2-2.8-14.6,0-21.8-1.7c-3.4-0.8-6.3-2.9-5.1-6.5c2.2-6.8,13.8-6.9,19.2-6.9
			c3.6,0,7.2-0.4,10.8-1.3c2.7-0.7,5.4-1.6,8-2.8c5.7-2.6,11.7-7.6,18.2-3.9c0.9,0.5,5.2,6,6.3,3.9c0.1-0.2,0.1-0.6,0-0.9l3.4-0.1
			c0.2,1.4,0.6,2.7,1,4c2.1,6.3,7.2,13.5,2.8,19.7c-2.1,2.9-5.2,4.6-8.4,6c-1.1,0.5-12.7,3.6-12.7,4.5c0.1,1.8,14.2-0.9,15.9-1
			C560.3,293.5,563.4,295.3,564,301z"/>
		<path class="st1" d="M556.5,260.9l-3.4,0.1c-0.3-1.1-1.5-2.6-1.8-3c-3.8-5-10.2-6.7-12.8-12.9c-0.7-1.6-1.4-4.9-1.8-8.6
			c-0.7-6.2-0.6-13.6,2.4-15.9c1.5-1.1,3.7-1,6.8,1.2c2,1.4,3.7,3,4.9,4.7C557.7,235.9,554.4,249.6,556.5,260.9z"/>
		<path class="st2" d="M430.1,429.5c-0.1,0-0.2,0-0.3,0c7.2-0.9,13.6-4.2,19.2-8.7c-8.1,2.5-15.2,1.9-23.5,1.9
			c-7.4,0-14.2,3.9-21.8,3.7c8.2,2.9,17.1,4.2,25.8,3.1c0,0-0.1,0-0.1,0C429.6,429.6,429.9,429.6,430.1,429.5z M427,382.2
			c0.1,0,0.2,0,0.4,0c-20.3,2.8-39.3,14.7-60.2,12.5c2.1,1.3,5.8,4.9,7.9,5.6c2.4,0.8,7-0.6,9.3-1.2c6.5-1.4,12.7-4,18.8-6.6
			c13.5-5.6,27.2-10.1,42.1-9.6c-5.3-1.2-10.8-1.6-16.2-1c0,0,0.1,0,0.1,0c0,0-0.1,0-0.2,0c-0.2,0-0.3,0-0.5,0.1c0,0-0.1,0-0.2,0
			c-0.2,0-0.4,0-0.6,0.1C427.5,382.2,427.2,382.2,427,382.2z M429.2,514.6L429.2,514.6l0.1-0.3l0.1-0.3c3.2-8.7-6-18.6-11-24.7
			c-6.3-7.7-11.7-15.2-16.4-24c-9.5-17.8-25.6-29.7-37.6-45.7c6.5,18.5,22.7,31.5,32,48.7c4.8,9,8.9,18,15.2,26.1
			c6.1,7.7,14.3,16.2,14.4,26.6C427.1,518.9,428.2,516.8,429.2,514.6z M428.1,429.8c-0.1,0-0.2,0-0.3,0
			C427.9,429.8,428,429.8,428.1,429.8z M423.1,382.7c0.2,0,0.5-0.1,0.7-0.1C423.5,382.7,423.3,382.7,423.1,382.7z M422.2,382.8
			c-0.1,0-0.2,0-0.3,0C422,382.8,422.1,382.8,422.2,382.8z M428.1,467.9c-2.7-6.6-6.2-13.7-10.3-19.3c-5.2-7.1-13.7-11.1-20.4-16.6
			c-3.5-2.8-5.6-6.3-8.6-9.3c-3-3-6.3-5-8.7-8.6c-2.4-3.4-3.8-7.4-6.3-10.8c-2.7-3.7-6.6-5.3-9.7-8.4c-0.2,0.9-0.5,1.7-1,2.5
			c2.2-0.6,12,18.1,13.3,20.1c4.9,7.2,10.4,13.8,16.7,19.7c12.8,11.9,28.7,19.7,36.9,36c-0.3-1.4-0.7-2.8-1.3-4.1c0,0,0,0,0-0.1
			c0,0,0,0,0-0.1c0,0.1,0-0.1-0.2-0.4C428.3,468.3,428.2,468,428.1,467.9z M521.9,358.7c0-0.1,0-0.2,0-0.3
			C521.8,358.5,521.8,358.6,521.9,358.7z M521.9,358.9c0,0.1,0,0.1,0,0.2C521.9,359,521.9,359,521.9,358.9z M521.8,358
			C521.7,357.9,521.7,357.9,521.8,358c0,0.8-10.7,2-11.8,2.1c-3.1,0.2-5.6-0.1-8.2-0.5l0.3-1.8c0.9,0.1,1.9,0.2,3,0.2
			c7.8,0.1,23.9-1.1,21.1-12.7c-0.3-1.4-1.3-3.3-2.4-5l1.2-0.3c1,1.7,2.1,3.1,3.3,4.1c5.6,4.9,14.3-0.2,18.6-4.3
			c3.2-3,5.8-7,6.5-11.3l2.5,0.4c-0.8,4.6-3,8.8-6.1,12.2c-6.4,6.9-15.3,6.6-22.1,12.3c-0.6,0.9-1.4,1.7-2.3,2.3
			c-1.2,0.5-1.2,1.1,0,2c-0.4,2.5,0.2,4.9-0.5,7.4c-1.2,4.4-4.1,8.2-6.9,11.7c-5.5,7.1-8.7,16.6-15.2,22.8
			c-6.9,6.6-16.8,8.7-25.7,11.1c-10.4,2.8-18.1,7-26.6,13.6c-9.2,7.1-19.5,10-31.1,8.9c3.7,5.2,3.5,11.8,4.8,17.9
			c1.2,5.6,4.3,9.9,6.6,15c2.6,5.6,3.7,11.8,2.9,17.9c-0.7,5.1-3,10.2-2.7,15.4c0.3,4.8,3.3,8.5,2.2,13.4c-1,4.6-4,9-6.1,13.2
			c-2.2,4.4-2.8,9.3-8.3,7.8c-4.3-1.2-7.8-4.7-10.4-8.2c-6.2-8.3-8.4-18.8-11.6-28.4c-3.2-9.7-9.5-16.5-14.3-25.3
			c-5-9.1-3.2-19.9-8.1-28.9c-2.2-4.1-5.6-7.6-8-11.5c-2.4-3.9-3.8-8.2-5.2-12.5c-2.7-8.1-6.2-16.5-14.9-19.4
			c-3.6-1.2-25.1-5.3-18.8-13.8l1,0.4c-0.6,1.4-0.6,2.1-0.2,2.5l0,0c1.9,7.9,29.2,12.3,32.6,6.3c0.7-1.3,0.6-2.6,0.1-3.9l2.5-0.4
			c0.5,0.9,1.2,1.5,3.1,1.9c8.3,1.5,19.2-2.3,27.1-4.6c8.8-2.6,17.5-5.6,26.5-7.5c9.7-2,18.8-5.8,28.6-7.9
			c-31.3,2.2-69.6,20.3-99.1,2.5l0.7-1.5c0.1,0,0.2,0.1,0.3,0.1c3.5,1.4,6.9,2.6,10.6,3.5c6.8,1.7,13.7,2.4,20.7,2.3
			c15.5-0.2,30.6-4.4,45.8-7.2c0.3-0.1,0.6-0.1,1-0.2c15.6-2.8,31.5-4.1,47.3-2.5c7.5,0.8,14.8,2.3,22,4.3c3.1,0.9,6.3,1.9,9.6,1.8
			c2.8-0.1,6.4-2.9,8.8-2.4c0-0.1,0.1-0.1,0.1-0.2c0.7-0.9,1.4-1.9,2.1-2.9c-0.6,0.2-1.1,0.5-1.7,0.6l-0.8-2.3
			c1.1-0.3,2.2-0.7,3-1.2C521.5,365.7,522.2,361.6,521.8,358z M508.7,384c0.9-1.6,1.8-3.3,2.9-4.8c-6.2,1.7-12.9-1.2-18.9-2.8
			c-6.7-1.9-13.7-3.7-20.7-3.8c-12.6-0.2-24.8,2-36.8,6c6.7,0,13.1,2.7,19.6,2.4c6-0.3,12-1.4,18-1.9c11.2-1.1,21,3,31.7,4.5h0
			c0,0,0,0,0,0c0.5,0.1,1.4,0.2,2.9,0.3c0,0,0.1,0,0.2,0C508,384,508.4,384,508.7,384z M506.1,388.8c0.5-0.8,0.9-1.6,1.3-2.4
			c-7.7-0.1-14.9-3.7-22.5-4.7c-7.9-1-15.5,0.4-23.3,1.4c7.9,0.3,15.7,2.6,23.5,4c2.2,0.4,20.5,0.8,20.8,2
			C506,389.1,506.1,388.9,506.1,388.8z M504,392.4c0.5-0.8,0.9-1.5,1.4-2.2c-5.3,2.8-13.8,0.8-19.4-0.2c-7.3-1.3-14.5-2.9-21.9-4
			c12.2,5.1,23.4,8.5,36.4,7c0.2,0,0.8,0,2.2-0.3C503.1,392.5,503.6,392.5,504,392.4z M497.2,399.3c0.6-0.4,1.2-0.9,1.7-1.3
			c-1.4,0.4-2.8,0.7-4.2,0.8C495.6,399,496.4,399.2,497.2,399.3C497.2,399.4,497.2,399.4,497.2,399.3z M493.1,401.7
			c-19.6-2-37.3,1.4-55.5,8.6c-14.8,5.8-32.2,13.9-48.4,8.6c11.4,8.5,24,4.5,36.2,0.1c9.3-3.4,24.5-9.5,34.4-5.8
			C470.2,407.3,482.6,407,493.1,401.7z M482.3,395.7c-7.5-1.7-14.3-5.3-21.6-5.7c-9.6-0.5-17.3-0.2-26.6,3
			c-14.5,4.9-33.1,14.7-48.6,8.4c-3.1,0.5-6.2,0.7-9.3,0.5c3.1,4.4,3.1,5.1,8.8,6.4c4.2,1,8.4,1,12.6,0.3c8.7-1.3,16.8-5.2,24.8-8.6
			c9-3.8,17.8-6.7,27.7-6.8C460.9,393.1,471.6,395.2,482.3,395.7z M454,417.1c0.7-0.5,1.4-1,2.1-1.5c-10.7,0-20.3,2.4-30.3,6
			c4.9-0.1,9.6,0.4,14.5-0.6C445,420.1,449.4,418.3,454,417.1C454,417.1,454,417.1,454,417.1z M473.1,398.2
			c-8.8-0.9-17.6-2.4-26.4-1.9c-7.9,0.5-15.3,3-22.6,5.9c-14.1,5.7-29.4,13.2-44.3,5.8c1.5,2.8,3.4,5.3,5.6,7.6c0,0,0,0.1,0.1,0.1
			c0.1,0,0.3,0.1,0.4,0.1c0.3,0.1,0.5,0.1,0.7,0.2c0.2,0,0.4,0.1,0.6,0.1c0.8,0.2,1.3,0.2,1.7,0.3c0,0,0.1,0,0.1,0
			C418.5,421,444.2,400.8,473.1,398.2z M444.3,386.5c0.1,0,0.3-0.1,0.4-0.1c-0.1,0-0.1,0-0.2,0c-19.8-1.3-35.6,8.9-54,13.9
			C410.2,400.1,425.7,390.5,444.3,386.5z M429.8,487.3c1.4-6.4-4.1-15.2-7.8-20.3c-4.8-6.7-11-11.8-17.6-16.6
			c4.7,6.1,7.9,13.2,12.2,19.6C420.6,475.9,426.3,481.1,429.8,487.3z M428.7,492c1.2-1.8,0.9-3-1-3.6c-1-1.6-2.8-3.1-4-4.6
			c-3.2-4.3-6.5-8.8-9.4-13.3c-5.3-8.3-8.3-17.9-15.8-24.4c-8.3-7.3-15.7-14.6-22-23.8c-2.8-4.1-5.3-8.3-7.9-12.5
			c-1.7-2.9-6.3-8.3-6-11.9c-1.9,2.1-4.8,2-7.4,2c-1.2,0-2.4,0-3.7,0c4.9,2.1,6.7,6.1,9.3,10.3c2.7,4.5,6,8.8,9.2,13
			c6.4,8.3,14.4,14.8,21.6,22.3c7.1,7.5,11.6,16.2,16.6,25.1c5.5,9.7,13.6,17.1,19.6,26.4C428,495.2,428.3,493.6,428.7,492z
			 M422.1,528.8c6.7-14.2-10.3-28.7-17.1-39.4c-8.9-14-14-29.2-25.3-41.8c2.2,7.7,1.8,15.6,5.8,22.8c3.7,6.6,9.1,11.9,12.1,18.9
			C403.6,503.5,418.7,512.9,422.1,528.8C422.1,528.9,422.1,528.8,422.1,528.8z M420.7,531.4c-1.3-6.8-4.6-13-8.4-18.7
			c-2.7-4-10-10.3-11.5-14.2c0-0.1-0.1-0.2-0.1-0.3l0.1,0.3c0,0,0,0,0,0.1c0,0,0.1,0.2,0.2,0.6c0,0.1,0,0.2,0.1,0.2
			c0.1,0.2,0.1,0.4,0.1,0.3c2.1,6.9,4,14.1,7.9,20.3C411.2,523.4,416.5,530.7,420.7,531.4z M419.4,438.5c-0.5-1.8-1.2-3.6-2.1-5.2
			c0-0.1-0.1-0.2-0.1-0.2c0,0-0.1,0-0.1,0c-1.2-0.1-2.3-0.3-3.5-0.5C415.7,434.3,417.6,436.3,419.4,438.5z M420.8,447.4
			c-0.7-5.9-6.5-11.7-11-15.6c0,0-0.1-0.1-0.1-0.1c-0.1,0-0.3-0.1-0.4-0.1c-5.2-1.2-10.3-3-15-5.5C402,434.4,414.1,438,420.8,447.4z
			"/>
		<path class="st2" d="M553.1,261c0.1,0.3,0.1,0.6,0,0.9c-1.1,2.1-5.4-3.4-6.3-3.9c-6.5-3.8-12.5,1.2-18.2,3.9
			c-2.6,1.2-5.3,2.1-8,2.8l-0.6-2.7c2.1-0.5,4-1.2,5.7-2c8-4.1,9.5-13,8.8-21.2c0-0.6-0.1-1.3-0.2-1.9l2.4-0.3
			c0.4,3.7,1.2,7,1.8,8.6c2.5,6.2,8.9,7.9,12.8,12.9C551.6,258.4,552.8,259.8,553.1,261z"/>
		<path class="st2" d="M537.3,199.7c0,0,0-0.1,0-0.1C537.3,199.6,537.3,199.7,537.3,199.7z M535.7,196.1
			C535.6,196,535.6,196,535.7,196.1L535.7,196.1z M536.9,198.8c-4.3-9.3-14.8-13-22.4-5.1c-6.2,6.5-6.9,17.2-4.7,25.5
			c1.4,5.3,4.3,9.8,6.9,14.5c0.5,0.9,3.6,4.5,3.2,5.3c-0.8,2-3-0.1-4.4,0.2c-2.7,0.5-4.2,7.5-6.4,6c-0.3-0.2,0.4-13.9,0.1-15.7
			c-0.6-3.7-1.5-7.5-2.9-11c-1.5-3.4-4-4.7-5.9-7.3c-2.2-3.1,0.6-2.5,2.8-5.6c1.9-2.6,2.3-6.3,2.6-9.4c0.5-4.6,0.3-9.3-0.8-13.8
			c-0.6-2.3-4.4-6.6-1.2-6.7c2.6-0.1,6.1,5.4,7.9,7c2.5,2.1,5.4,3.4,8.8,2.4c3-0.9,4.1-2.6,4.1-4.7l3.4,0.1c0,1.7-0.5,3.3-1.4,4.7
			c11.8,0.6,16.5,14.1,16.8,23.8c0.3,7.4,5.8,11.5,9.8,17l-2.4,0.5c-1.3-1.7-2.9-3.3-4.9-4.7c-3.1-2.1-5.3-2.3-6.8-1.2l-3.2-1.4
			c5.1-1.7,2.9-15.6,1.2-19.9c0,0.1,0.1,0.1,0.1,0.2c-0.1-0.1-0.1-0.3-0.2-0.5C537,198.9,536.9,198.9,536.9,198.8z"/>
		<path class="st2" d="M535.9,219.2l3.2,1.4c-3,2.2-3.2,9.6-2.4,15.9l-2.4,0.3c-1.4-9.1-6.9-15-13.1-21.9c-1.6-1.8-7.9-6.8-3.5-7.7
			c1.1-0.2,4.7,2.3,6,2.6c2,0.6,4,0.9,6.1,0.8c3.2-0.2,7.8-1.8,4.6,2.2c-1.8,2.3-7.1,3.9-1.6,6.1C533.9,219.4,535,219.5,535.9,219.2
			z"/>
		<path class="st1" d="M537.3,199.7c0,0,0-0.1,0-0.1C537.3,199.6,537.3,199.7,537.3,199.7z"/>
		<path class="st1" d="M537.1,199.3c1.7,4.4,3.9,18.2-1.2,19.9c-0.9,0.3-2,0.2-3.3-0.3c-5.5-2.1-0.2-3.8,1.6-6.1
			c3.3-4.1-1.4-2.4-4.6-2.2c-2,0.1-4.1-0.2-6.1-0.8c-1.3-0.4-4.9-2.8-6-2.6c-4.4,0.9,2,5.9,3.5,7.7c6.1,7,11.6,12.8,13.1,21.9
			c0.1,0.6,0.2,1.2,0.2,1.9c0.7,8.2-0.7,17.1-8.8,21.2c-1.7,0.9-3.6,1.6-5.7,2c-6,1.4-12.9,1-17.5-2.4c-4.4-3.1-5.7-8.1-6.9-13.2
			c-0.8-3.5-1.6-7-3.3-10.1c-2.1-3.9-4.9-7.5-8.2-10.4c-2.1-1.9-3.5-2.3-4.1-5.2c-0.6-2.8,0.2-6.1,1-8.8c0.5-2,1-4,1.3-5.9
			c1.1-6.9,0.3-13.5-4.8-19.5c-2.5-3-5.5-5.4-3.8-9.8c1.6-4.2,7.5-6.1,11.3-7.6c9-3.6,19.8-6.3,29.1-2.2c3.7,1.7,10.5,8.5,10.5,13.5
			c0,2.1-1.1,3.8-4.1,4.7c-3.4,1-6.2-0.3-8.8-2.4c-1.8-1.5-5.3-7-7.9-7c-3.2,0.1,0.6,4.4,1.2,6.7c1.1,4.5,1.3,9.1,0.8,13.8
			c-0.3,3.1-0.7,6.8-2.6,9.4c-2.2,3.1-5,2.4-2.8,5.6c1.9,2.7,4.5,3.9,5.9,7.3c1.5,3.5,2.3,7.3,2.9,11c0.3,1.8-0.4,15.5-0.1,15.7
			c2.3,1.5,3.7-5.5,6.4-6c1.4-0.3,3.6,1.8,4.4-0.2c0.4-0.9-2.7-4.4-3.2-5.3c-2.6-4.7-5.6-9.3-6.9-14.5c-2.2-8.3-1.5-19,4.7-25.5
			c7.6-8,18.2-4.2,22.4,5.1c0,0,0,0.1,0.1,0.1C537,199.1,537.1,199.2,537.1,199.3z"/>
		<path class="st1" d="M537.2,199.4c0,0,0-0.1-0.1-0.2c0-0.1-0.1-0.2-0.1-0.3C537.1,199.1,537.1,199.3,537.2,199.4z"/>
		<path class="st1" d="M535.7,196.1C535.6,196,535.6,196,535.7,196.1L535.7,196.1z"/>
		<path class="st2" d="M494.9,356.5C494.9,356.5,494.9,356.5,494.9,356.5C494.8,356.7,495,356.7,494.9,356.5L494.9,356.5z
			 M419.8,359.4c0.1,0,0.2,0,0.3,0.1C420,359.5,419.9,359.4,419.8,359.4z M415.7,358.4c0.1,0,0.1,0,0.2,0.1
			C415.8,358.5,415.7,358.5,415.7,358.4z M416,358.5C416,358.5,416,358.5,416,358.5C416.1,358.5,416.1,358.5,416,358.5
			c0.1,0,0.1,0,0.1,0c0,0,0.1,0,0.1,0c0,0,0.1,0,0.1,0c0.1,0,0.1,0,0.2,0c0,0,0,0,0.1,0c0.2,0,0.4,0.1,0.6,0.1c0,0,0.1,0,0.1,0
			s0.1,0,0.1,0c0.2,0,0.3,0.1,0.5,0.1c0.2,0,0.3,0.1,0.5,0.1c0.1,0,0.2,0,0.2,0c8.6,1.9,20.5,3.6,28.6,0.7
			c7.6-2.7-1.3-10.3-5.3-12.3c-4.8-2.4-8.7-1.7-13.7-0.6c-2.3,0.5-10.1,2-11.8-0.6c-3.1-4.7,8.3-3.3,10.6-3.2c5,0,9.7-0.7,9.7-6.8
			c0-10.6-9.2-8.8-16.2-6.8c-3,0.9-8.4,1.3-10.5,3.7c-2.2,2.4-1.3,7.6-1.4,10.7C408.3,351.2,408.5,356.5,416,358.5z M523.3,287.4
			C523.3,287.4,523.2,287.4,523.3,287.4C523.2,287.4,523.3,287.4,523.3,287.4z M523.2,287.3c-0.3-0.1-1.2-0.5-2.9-1.1c0,0,0,0,0,0
			c-5.7-1.6-11-1.1-16.9-1.5c-2.9-0.2-5.6-1.6-8.3-1.9c-3-0.3-5.4,1.4-8.2,2.1c-0.5,0.1-1.1,0.2-1.6,0.3c-4.8,0.7-9.2-1.2-14-0.5
			c-4.1,0.6-7.7,1.9-11.5,2.5c-2,0.4-4,0.5-6.2,0.4c-12.6-1-10.1,14.2-0.9,18.1c0.7,0.3,1.3,0.5,2,0.6l-0.4,2.9
			c-2.2-0.3-4.3-0.2-6.3,0.4c-8,2.2-9.3,12.1-8.1,19c2.8,17.1,18.2,29.9,35.2,30.9c4.5,0.3,12.5,0.7,15.8-3.1c2.2-2.5,1.2-5,0.3-7.8
			c-0.4-1.1-4.7-9.4-4.5-9.8c1.5-2.8,7.3,11.1,7.5,11.6c1.7,4.4,4,6.5,7.9,7.2l-0.3,1.8c-1.3-0.2-2.6-0.4-4-0.6
			c-4.2-0.6-6,1.8-10.1,2.9c-3.9,1-8.2,1-12.2,0.8c9.9,1.7,19.2,5.8,29.3,6.4c2.8,0.2,7.6,0.4,11.2-0.4l0.8,2.3
			c-14.3,5.1-30.4-3.8-44.5-6c-15-2.3-29.4,2.7-44.1,5.3c-1.7,0.3-3.4,0.6-5.2,0.8c-7.7,1-15.7,1.5-23.5,0.7c-4-0.4-6.9-1-10.8-0.3
			c-4,0.7-8.2,0.4-12.3-0.1l0.3-2.4c8.1,1,16.8-0.9,22.3-6.8c3.5-3.8,6.4-8.4,6.8-13.4c0.5-6.7-0.5-13.2-3.2-19.4
			c-0.8-1.7-1.7-3.6-2.9-5.4l2.7-0.6c0.8,1.2,2.1,2.3,4.1,3.2c8.3,3.7,21.2-3,27.2-8.6c7.7-7.1,11.2-19.7,3.8-28.5
			c-2.9-3.5-7.4-5.6-12.2-7.1l0.6-2.3c9.3,2.4,19.6,2.9,27.2,2.7c16.2-0.2,35.1-5.8,39-23.7c0.9-4,0.8-8.1-0.1-12l3.3-0.9
			c1.2,5.1,2.5,10.1,6.9,13.2c4.6,3.3,11.6,3.8,17.5,2.4l0.6,2.7c-3.5,0.9-7.2,1.3-10.8,1.3c-5.4,0-17,0.1-19.2,6.9
			c-1.2,3.5,1.7,5.7,5.1,6.5c7.2,1.7,14.6-1.1,21.8,1.7c5.1,2,10,5,13,9.6c4.1,6.2,4.3,14.1,2,21c-1,3-3,5.7-5,8.3l-2.2-0.8
			c7.8-10.4,9.4-26.3-3.9-32.4C522.1,287,522.9,287.2,523.2,287.3z M455.2,362.1c4.3-0.6,8.7-0.7,13.1-0.4c-3.5-0.8-6.6-2.5-10-3.3
			c-4.5-1-4.3,0.7-7.4,2.9c-1.6,1.1-3.3,1.8-5.2,2.2c-4.4,1-9.3,0.5-13.5,0.1c-8.2-0.7-15.1-2.8-22.8-5c-5.6-1.6-8.8,7.6-13.7,10.5
			c10.1,0.1,20.2,0.4,30.2-1.2c6.7-1.1,13.3-2.7,19.9-4.1c2.7-0.6,5.5-1.1,8.3-1.5c0.1,0,0.2,0,0.3,0c0.2,0,0.4,0,0.6-0.1
			C455.1,362.2,455.2,362.2,455.2,362.1z M407,355.9c-0.1-0.3-0.2-0.6-0.4-0.9C406,356,406.1,356.3,407,355.9z"/>
		<path class="st2" d="M435.6,98.6c-2.2-1.1-4.9-2.1-7.7-2.6l0.6-2.8c1,0.2,2,0.3,2.8,0.5c6.1,1.7,11.6,5.4,16.6,9.3
			c3.3,2.6,5.4,5,7.6,8.5c0.3,0.4,0.2,2.8,0.2,2.8c0.7,0.6,4.3,0.7,5.4,0.8c7.5,1.2,14.1,4,20.3,8.3c6.8,4.7,12.8,10.5,18.2,16.7
			c2.3,2.6,4.9,5.4,6.7,8.4c1.8,3,1.8,5.5,2.7,8.6c1.7,5.3,8.5,6,12.3,9.4c3.3,2.9,6.7,8.9,6.6,14l-3.4-0.1c0-5-6.8-11.8-10.5-13.5
			c-9.3-4.1-20-1.4-29.1,2.2c-3.8,1.5-9.7,3.4-11.3,7.6c-1.7,4.4,1.3,6.8,3.8,9.8c5,6,5.9,12.6,4.8,19.5l-2.9-0.4
			c1.4-8.7-3-17.6-11.1-22.4c-11.4-6.7-22.2-8.9-28-22.2c-2.2-5.1-2.6-12.2-3.8-18.8l2-0.2c0.8,4.6,1.9,9.3,3.2,13.4
			c2.4,7.6,6.9,15,14.4,18.4c7.5,3.4,16.6,1.2,20.3-6.7c3.8-8.1-3.1-14.2-9.3-18.2c-3.7-2.4-7.1-4.6-10.2-7.8
			c-1.3-1.4-2.7-3.6-4.3-4.7c-0.2-0.1-2.2-1.1-3.1-1.5c1.5-0.1,5.8-4.7,6.3-5.7c0.2,1.1,2.8,7.8,3.3,8.4c1.9,2.5,4.7,4.1,7.3,5.7
			c6.5,3.9,10.9,8.7,16.5,13.6c5.1,4.4,12.7,6.2,18.6,2c7.3-5.2-1-12.1-5.2-16.6c0.1,0.1,0.1,0.1,0,0c-0.1-0.1-0.2-0.2-0.3-0.3l0,0
			c0,0,0,0-0.1-0.1c0,0-0.1-0.1-0.3-0.4c-0.1-0.1-0.1-0.1-0.2-0.2l-0.1-0.1c-0.1-0.1-0.2-0.2-0.2-0.3l-0.1-0.1
			c-11.9-12.7-27.1-24.7-45.2-22.3l-0.5-3.4c1.2-0.3,2.2-0.8,2.4-1.5c0.5-2.1-1.9-4.3-3.2-5.6c-3.5-3.6-8-6.8-12.4-9.1c0,0,0,0,0,0
			C435.8,98.7,435.7,98.7,435.6,98.6z"/>
		<path class="st2" d="M527.5,319.8c-2.3,3-4.5,6-5.2,9.4c-0.7,3.1,0.7,7.3,2.7,10.7l-1.2,0.3c-1.5-2.3-3.4-4.5-4.9-5.4
			c-3.4-2.1-8.1-0.8-11.8-0.4c-11.6,1.1-21.3-0.1-32.5-2.5c-5-1.1-10.7-2.9-15.8-2c-2.4,0.4-5.5,3.7-6.3,2.4
			c-0.6-1.1,0.8-2.7,0.8-3.8c0.1-2.3-1.3-3.4-1.5-5.3c-0.3-2.1-1.1-1.4,1.4-0.8c5.8,1.4,11.4,4.5,17.4,5.8c4.5,1,9,1.6,13.5,1.9
			c9.7,0.7,21.2,1.3,30.5-2.3c4.1-1.6,7.8-4.7,10.7-8.6L527.5,319.8z"/>
		<path class="st1" d="M511.3,307c-1.3-3.2-23.1,6.2-25.5-4.6c-0.4-1.9,1.3-13,0.6-13.6c-0.2-0.2-0.5-0.3-0.7-0.3l-0.5-3.2
			c0.5-0.1,1-0.2,1.6-0.3c2.8-0.7,5.2-2.4,8.2-2.1c2.7,0.2,5.4,1.7,8.3,1.9c5.9,0.4,11.2-0.1,16.9,1.5c0,0,0.4,0.2,1,0.4
			c0.1,0,0.1,0.1,0.2,0.1c0,0,0,0,0,0c13.3,6.1,11.7,21.9,3.9,32.4c-2.9,3.8-6.6,6.9-10.7,8.6c-9.3,3.6-20.8,3-30.5,2.3
			c-4.6-0.3-9.1-0.9-13.5-1.9c-6-1.3-11.6-4.3-17.4-5.8c-2.6-0.6-1.7-1.4-1.4,0.8c0.2,1.9,1.6,3,1.5,5.3c-0.1,1.1-1.4,2.7-0.8,3.8
			c0.8,1.3,3.9-2,6.3-2.4c5.1-0.8,10.9,1,15.8,2c11.2,2.4,20.9,3.6,32.5,2.5c3.7-0.3,8.4-1.7,11.8,0.4c1.5,1,3.4,3.2,4.9,5.4
			c1.2,1.8,2.1,3.6,2.4,5c2.8,11.6-13.3,12.8-21.1,12.7c-1.1,0-2.1-0.1-3-0.2c-3.9-0.7-6.1-2.8-7.9-7.2c-0.2-0.6-6-14.4-7.5-11.6
			c-0.2,0.4,4.2,8.7,4.5,9.8c1,2.8,1.9,5.3-0.3,7.8c-3.3,3.8-11.3,3.4-15.8,3.1c-17.1-1-32.4-13.8-35.2-30.9
			c-1.1-6.9,0.1-16.7,8.1-19c2-0.6,4.2-0.6,6.3-0.4c7.2,0.9,15.1,5,22.1,5.1c8.7,0.1,17.3-5.3,25.9-3.8c1.6,0.3,5.3,2.8,6.6,2.4
			c0,0.1,0.1,0,0.3-0.2c-0.1,0.1-0.2,0.1-0.3,0.2C508.5,312.7,510.9,306.2,511.3,307z M511.3,307c0,0,0,0.1,0,0.2
			C511.4,307.1,511.3,307,511.3,307z"/>
		<path class="st1" d="M521.8,358c0.5,3.7-0.3,7.8-2.8,9.4c-0.8,0.5-1.8,0.9-3,1.2c-3.6,0.8-8.4,0.6-11.2,0.4
			c-10.1-0.6-19.4-4.7-29.3-6.4c4,0.2,8.3,0.2,12.2-0.8c4.1-1.1,5.9-3.5,10.1-2.9c1.4,0.2,2.7,0.4,4,0.6c2.6,0.4,5.1,0.8,8.2,0.5
			C511,360,521.7,358.7,521.8,358C521.7,357.9,521.7,357.9,521.8,358z"/>
		<path class="st1" d="M520.2,286.2c0.3,0.1,0.6,0.2,0.9,0.4C520.6,286.4,520.2,286.2,520.2,286.2
			C520.2,286.2,520.2,286.2,520.2,286.2z"/>
		<path class="st1" d="M518.4,370.3c-0.7,1-1.3,2-2.1,2.9c0.5-0.7-0.5,0.1-0.1,0.2c-2.4-0.5-6,2.3-8.8,2.4c-3.3,0.1-6.5-0.9-9.6-1.8
			c-7.2-2-14.5-3.6-22-4.3c-15.8-1.6-31.7-0.3-47.3,2.5l-0.3-1.8c14.6-2.6,29.1-7.6,44.1-5.3c14,2.1,30.2,11.1,44.5,6
			C517.3,370.7,517.9,370.5,518.4,370.3z"/>
		<path class="st1" d="M516.2,373.3c-0.4-0.1,0.6-0.9,0.1-0.2C516.3,373.2,516.3,373.3,516.2,373.3z"/>
		<path class="st1" d="M511.4,307.2c0-0.1,0-0.1,0-0.2C511.3,307,511.4,307.1,511.4,307.2z"/>
		<path class="st2" d="M511.3,307c-0.4-0.8-2.8,5.7-2.5,6.1c-1.3,0.4-5-2.2-6.6-2.4c-8.6-1.5-17.2,3.9-25.9,3.8
			c-6.9-0.1-14.8-4.3-22.1-5.1l0.4-2.9c3.6,0.8,7.4-0.3,8.2-4.4c0.7-3.9-2.6-6.8-3-10.2c-0.2-1.3,0-1.8,0.3-1.9
			c0.9-0.3,3.4,3.6,4,4.9c2.1,4.5,1.8,10.8,6.3,13.8c3.1,2,8.4,2.5,10.8-0.8c2.2-3.1,1-8.2,1.3-11.7c0-0.7,1.1-7.6,3-7.6
			c0.2,0,0.5,0.1,0.7,0.3c0.8,0.6-1,11.8-0.6,13.6C488.2,313.2,510,303.7,511.3,307z"/>
		<path class="st1" d="M511.7,379.2c-1.1,1.5-2,3.2-2.9,4.8c0.7-1.3-6.7-1-4.1-0.4c-10.7-1.5-20.5-5.6-31.7-4.5
			c-6,0.6-11.9,1.7-18,1.9c-6.6,0.3-12.9-2.4-19.6-2.4c12-4.1,24.2-6.3,36.8-6c7,0.1,14,1.9,20.7,3.8
			C498.7,378,505.4,380.9,511.7,379.2z"/>
		<path class="st1" d="M509.1,312.9c-0.1,0.2-0.2,0.2-0.3,0.2C509,313,509,312.9,509.1,312.9z"/>
		<path class="st1" d="M504.6,383.6c-2.6-0.5,4.8-0.9,4.1,0.4c-0.3,0-0.7,0-1-0.1c-0.1,0-0.1,0-0.2,0
			C506.6,383.8,505.6,383.7,504.6,383.6C504.7,383.6,504.7,383.6,504.6,383.6L504.6,383.6L504.6,383.6z"/>
		<path class="st1" d="M507.5,386.4c-0.4,0.8-0.9,1.6-1.3,2.4c0.2-0.4-0.2,0.1-0.2,0.3c-0.3-1.2-18.6-1.7-20.8-2
			c-7.8-1.4-15.5-3.7-23.5-4c7.8-1,15.4-2.4,23.3-1.4C492.6,382.7,499.7,386.3,507.5,386.4z"/>
		<path class="st1" d="M506,389.2c0-0.2,0.3-0.7,0.2-0.3C506.1,388.9,506,389.1,506,389.2z"/>
		<path class="st1" d="M505.4,390.2c-0.5,0.7-0.9,1.5-1.4,2.2c0.4-0.5-4,0.4-3.4,0.5c-13,1.5-24.2-1.8-36.4-7
			c7.3,1.2,14.6,2.7,21.9,4C491.6,390.9,500.1,392.9,505.4,390.2z"/>
		<path class="st1" d="M500.6,392.9c-0.6,0,3.8-1,3.4-0.5c-0.5,0.1-0.9,0.1-1.2,0.2C502.1,392.7,501.3,392.8,500.6,392.9z"/>
		<path class="st1" d="M455.7,129.2c0-0.1,0.1-0.2,0-0.2S455.7,129.1,455.7,129.2z M455.7,129.2c-0.6,1-4.8,5.5-6.3,5.7
			c-0.3-0.1-0.4-0.2-0.5-0.2c0.1,0.2,0.3,0.2,0.5,0.2c0.9,0.4,2.9,1.4,3.1,1.5c1.6,1.1,3,3.3,4.3,4.7c3.1,3.2,6.5,5.4,10.2,7.8
			c6.2,4,13.1,10.2,9.3,18.2c-3.7,7.9-12.8,10.1-20.3,6.7c-7.6-3.4-12.1-10.7-14.4-18.4c-1.3-4.2-2.3-8.8-3.2-13.4
			c-0.6-3.6-1.1-7.2-1.5-10.6c-1-8.3,4.5-11.6,11.9-12.8c0.3,0,0.6-0.1,0.9-0.1c18.1-2.3,33.3,9.6,45.2,22.3c0,0,0.1,0.1,0.1,0.1
			c0.1,0.1,0.2,0.3,0.4,0.4c0,0.1,0.1,0.1,0.2,0.2c0.2,0.2,0.4,0.4,0.3,0.4c0,0,0,0,0.1,0.1l0,0c0.1,0.1,0.2,0.2,0.3,0.3
			c0.1,0.1,0.1,0.1,0,0c4.2,4.5,12.5,11.4,5.2,16.6c-5.9,4.2-13.5,2.4-18.6-2c-5.7-4.9-10.1-9.7-16.5-13.6c-2.6-1.6-5.4-3.2-7.3-5.7
			C458.6,136.9,455.9,130.3,455.7,129.2z"/>
		<path class="st1" d="M497.2,399.4C496.4,399.2,497.7,399,497.2,399.4C497.2,399.4,497.2,399.4,497.2,399.4z"/>
		<path class="st2" d="M495.6,246.3l-3.3,0.9c-1-4.5-3-8.8-5.7-12.5c-5.8-7.8-11.4-9.3-20.4-6.8c-11.4,3.1-21.5,2.2-33-0.1
			c-4.4-0.9-8.9-2.4-13.4-2.2c-1.7,0-9.7,3.9-9.9,3.8c-0.6-0.4,1.7-5.3,1.7-5.8c-0.2-2.9-2.8-3.7,0.3-3.4c0.8,0.1,2.9,1.3,4.1,1.6
			c1.7,0.3,3.6,0.2,5.3,0.4c3.8,0.5,7.6,1.2,11.3,2c14.6,2.9,32.5,4.3,42.8-9.2c2.2-2.9,3.5-6.1,4-9.3l2.9,0.4
			c-0.3,2-0.8,3.9-1.3,5.9c-0.7,2.6-1.6,6-1,8.8c0.7,2.9,2,3.4,4.1,5.2c3.3,2.9,6.1,6.6,8.2,10.4C494,239.3,494.8,242.9,495.6,246.3
			z"/>
		<path class="st1" d="M495.3,141.3c-0.1-0.1-0.2-0.3-0.4-0.4c0.1,0.1,0.1,0.2,0.2,0.3L495.3,141.3z"/>
		<path class="st1" d="M494.9,140.8l0.1,0.1C494.9,140.9,494.9,140.8,494.9,140.8z"/>
		<path class="st1" d="M494.9,356.5L494.9,356.5C494.9,356.5,494.9,356.5,494.9,356.5C494.9,356.5,494.9,356.5,494.9,356.5z"/>
		<path class="st1" d="M492.3,247.3c0.9,4,0.9,8.1,0.1,12c-3.9,17.9-22.8,23.5-39,23.7c-7.6,0.1-17.9-0.3-27.2-2.7
			c-7.2-1.9-13.9-4.9-18.1-9.8c-2.2-2.6-3.8-6.6-3.6-10c0.2-3.4,2.3-6.1,7.4-5.7c3.8,0.3,7.2,2.8,11.1,3.6c6,1.2,11.4-0.1,17-2.2
			c4-1.5,8-4.1,12.3-4.4c4.3-0.3,5.1,1.6,8.2,3.4c2,1.2,0.2,1.8,2,0.3c0.6-0.5,1.3-2.3,2-3c0.7-0.7,2.7,0.4,2.9-0.9
			c0.4-3-8.1-4.2-9.9-4.2c-4.2,0-8.4,1.5-12.3,3c-9.2,3.5-16.8,6.6-26.5,2.8c-8.7-3.4-16.6-10.5-21.5-18.4c-5.9-9.6-2.7-15.6,4-23.3
			c6.6-7.6,15.4-16.5,26.3-13.1c5.8,1.8,11,5,17.1,5.7c2,0.2,9.9,1.4,7.4-2.2c-1.4-2-11.1-3.2-13.6-4.4c-4.3-2-8.1-4.6-11.1-8.3
			c-3.2-4-5.4-8.8-6.7-13.8c-0.5-1.8-1-14.5-2.1-14.9c-2.4-0.8-1.5,19.3-1.3,21.2c0.5,8.3-3.4,12.3-9.7,17.3
			c-6,4.7-9.3,8.6-16.8,4.5c-6.6-3.5-11.2-9.6-15.1-15.9c-4-6.4-6.9-13.1-8.7-20c-2-7.6-2.6-15.5-1.7-23.7
			c0.6-5.9,1.4-16.6,5.2-21.5c1.7-2.3,3.6-3.1,5.4-3.1c4.4,0,8.8,5.1,12.2,7.7c-2.2-1.7,0.7,2,0,0c2,5.7,2.8,12.5,3,18.5
			c0.2,7.5-2.1,14.7-2.1,22.2c0,5,1,8.6,3.1,12.7c0.3,0.6,1.7,5.6,2,5.8c2.4,1.2,3.2-3.8,4.3-5.4c1.2-1.8,6.2-4.9,4.9-7
			c-1.9-3.1-9.9,5.1-10.8-3.3c-0.3-3.1,1-6.9,1.2-10.1c0.2-3.1,0.1-6.1,0.3-9.2c0.5-6.3,1.2-14.2,6.1-18.8c2.5-2.4,6-4.4,9.8-5.8
			c6.8-2.5,14.7-2.8,19.9,1.2c4.2,3.2,5.9,8.6,6.9,14.3c1.2,6.6,1.6,13.7,3.8,18.8c5.8,13.3,16.6,15.4,28,22.2
			c8.2,4.8,12.5,13.8,11.1,22.4c-0.5,3.2-1.8,6.4-4,9.3c-10.2,13.5-28.2,12.1-42.8,9.2c-3.7-0.7-7.6-1.5-11.3-2
			c-1.8-0.2-3.6-0.1-5.3-0.4c-1.2-0.2-3.3-1.5-4.1-1.6c-3-0.3-0.5,0.5-0.3,3.4c0,0.6-2.3,5.5-1.7,5.8c0.2,0.1,8.2-3.7,9.9-3.8
			c4.5-0.1,9.1,1.4,13.4,2.2c11.5,2.3,21.7,3.3,33,0.1c9-2.5,14.7-1,20.4,6.8C489.3,238.5,491.3,242.8,492.3,247.3z"/>
		<path class="st1" d="M485.2,285.2l0.5,3.2c-2,0-3,6.9-3,7.6c-0.3,3.5,0.9,8.6-1.3,11.7c-2.4,3.3-7.7,2.8-10.8,0.8
			c-4.5-3-4.2-9.3-6.3-13.8c-0.6-1.3-3.1-5.1-4-4.9l-0.4-2.5c3.8-0.7,7.4-1.9,11.5-2.5C476,284.1,480.4,285.9,485.2,285.2z"/>
		<path class="st1" d="M437.6,410.3c18.3-7.1,35.9-10.5,55.5-8.6c-10.6,5.3-22.9,5.6-33.3,11.5c2-1.1-4.5-1.7,0,0
			c-10-3.7-25.2,2.4-34.4,5.8c-12.2,4.4-24.8,8.4-36.2-0.1C405.4,424.2,422.8,416.1,437.6,410.3z"/>
		<path class="st1" d="M460.7,390c7.3,0.4,14.1,4,21.6,5.7c-10.7-0.5-21.4-2.6-32.2-2.4c-9.9,0.1-18.6,3-27.7,6.8
			c-8,3.4-16.1,7.3-24.8,8.6c-4.2,0.6-8.4,0.6-12.6-0.3c-5.7-1.3-5.7-2-8.8-6.4c3.1,0.2,6.2,0,9.3-0.5c-3,0.5,10.8,4.4,0,0
			c15.4,6.3,34.1-3.5,48.6-8.4C443.4,389.8,451.1,389.5,460.7,390z"/>
		<path class="st2" d="M457.5,247.5c1.8,0,10.3,1.2,9.9,4.2c-0.2,1.3-2.2,0.1-2.9,0.9c-0.7,0.7-1.4,2.5-2,3c-1.8,1.5,0,0.9-2-0.3
			c-3.1-1.8-3.9-3.7-8.2-3.4c-4.3,0.3-8.4,2.9-12.3,4.4c-5.6,2.1-11,3.4-17,2.2c-3.8-0.8-7.2-3.3-11.1-3.6c-5.1-0.4-7.2,2.3-7.4,5.7
			h-2.6c1.1-10.6-4.1-21.6-13.3-27.3c-5.9-3.7-12.7-4.6-19.6-5.3l0.4-3.4c6.6,0.8,12.8,0.4,17.9-4.2c2.1-1.9,4.7-5,4.7-8
			c0-3.8-3.6-5.4-6.3-7.4c-5.6-4.4-9.9-9.7-13.5-15.7c-4-6.7-6.7-13.6-8.5-20.8l3-0.5c1.8,6.9,4.7,13.6,8.7,20
			c3.9,6.2,8.6,12.3,15.1,15.9c7.6,4.1,10.8,0.2,16.8-4.5c6.4-5,10.2-9,9.7-17.3c-0.1-1.9-1-22,1.3-21.2c1.1,0.4,1.7,13.1,2.1,14.9
			c1.2,4.9,3.5,9.8,6.7,13.8c3,3.7,6.8,6.4,11.1,8.3c2.5,1.1,12.2,2.4,13.6,4.4c2.5,3.6-5.4,2.4-7.4,2.2c-6.1-0.7-11.3-3.9-17.1-5.7
			c-10.9-3.4-19.8,5.5-26.3,13.1c-6.7,7.7-9.9,13.8-4,23.3c4.9,7.9,12.8,15,21.5,18.4c9.7,3.8,17.3,0.8,26.5-2.8
			C449.1,248.9,453.2,247.4,457.5,247.5z M395.7,208.7l0.6,2.8C396.2,210.6,396,209.6,395.7,208.7z"/>
		<path class="st1" d="M451.7,362.6C451.2,362.7,451.1,362.7,451.7,362.6L451.7,362.6z M453.6,362.4c-0.1,0-0.2,0-0.3,0
			c-0.2,0-0.4,0-0.6,0.1c-0.4,0-0.7,0.1-1,0.1c0.2,0,0.6-0.1,1-0.1c0.2,0,0.4,0,0.6-0.1C453.4,362.4,453.5,362.4,453.6,362.4z
			 M453.8,362.3c0.1,0,0.2,0,0.2,0c-2.8,0.4-5.5,0.9-8.3,1.5l-0.1-0.3c1.9-0.4,3.6-1.1,5.2-2.2c3.2-2.2,2.9-4,7.4-2.9
			c3.4,0.8,6.5,2.5,10,3.3c-4.4-0.3-8.8-0.2-13.1,0.4c0.1,0,0.1,0,0.1,0c-0.3,0-0.6,0.1-1,0.1C454.2,362.3,454,362.3,453.8,362.3z
			 M455.5,362.1c0.1,0,0.2,0,0.3,0C455.8,362.1,455.7,362.1,455.5,362.1z"/>
		<path class="st1" d="M459.9,291.7c0.4,3.4,3.8,6.3,3,10.2c-0.8,4.1-4.6,5.2-8.2,4.4c-0.7-0.1-1.4-0.4-2-0.6
			c-9.3-3.9-11.7-19.1,0.9-18.1c2.2,0.2,4.2,0,6.2-0.4l0.4,2.5C459.8,289.9,459.7,290.4,459.9,291.7z"/>
		<path class="st1" d="M459.9,413.2C455.4,411.6,461.9,412.1,459.9,413.2L459.9,413.2z"/>
		<path class="st1" d="M456.2,415.6c-0.7,0.5-1.4,1-2.1,1.5c0.3-0.4-5.7,1.5,0,0c-4.6,1.2-9,3-13.6,3.9c-4.8,0.9-9.6,0.4-14.5,0.6
			C435.9,417.9,445.5,415.5,456.2,415.6z"/>
		<path class="st1" d="M455.8,129c0,0,0,0.1,0,0.2C455.7,129.1,455.7,129,455.8,129z"/>
		<path class="st1" d="M455.8,362.1c0,0-0.1,0-0.3,0C455.7,362.1,455.8,362.1,455.8,362.1z"/>
		<path class="st1" d="M455.4,362.1c0,0-0.1,0-0.1,0c-0.1,0-0.2,0-0.3,0c-0.2,0-0.4,0.1-0.6,0.1
			C454.7,362.2,455.1,362.2,455.4,362.1z"/>
		<path class="st1" d="M454.3,362.3c-0.1,0-0.2,0-0.3,0c-0.1,0-0.2,0-0.2,0C454,362.3,454.2,362.3,454.3,362.3z"/>
		<path class="st1" d="M454,417.1C448.3,418.6,454.4,416.7,454,417.1C454,417.1,454,417.1,454,417.1z"/>
		<path class="st1" d="M453.6,362.4c-0.1,0-0.2,0-0.3,0C453.4,362.4,453.5,362.4,453.6,362.4z"/>
		<path class="st1" d="M452.7,362.5c0.2,0,0.4-0.1,0.6-0.1C453.1,362.4,452.9,362.5,452.7,362.5z"/>
		<path class="st1" d="M446.8,396.4c8.8-0.5,17.6,1,26.4,1.9c-29,2.6-54.6,22.8-84,18.2c1.9,0.1-4.6-1.9-3.6-0.8
			c-2.3-2.2-4.1-4.8-5.6-7.6c14.9,7.3,30.3-0.1,44.3-5.8C431.5,399.3,438.8,396.8,446.8,396.4z"/>
		<path class="st1" d="M452.7,362.5c-0.4,0.1-0.8,0.1-1,0.1C452,362.6,452.3,362.5,452.7,362.5z"/>
		<path class="st1" d="M448.4,107.9c1.2,1.3,3.7,3.5,3.2,5.6c-0.2,0.8-1.2,1.2-2.4,1.5c-1.6,0.4-3.6,0.6-4.7,1
			c-3.4,1.1-26,12.5-21.5-0.8c1.3-4,6.5-5.6,10.1-5.5c1.6,0,7.3,2.6,8.3,0.8c0.7-1.2-2.7-2.6-3.2-2.8c-7.2-3.4-17.6,0.7-21.2,7.5
			c-3.4-1.6-5-6.1-4.7-10.3c0.2-2.3,0.9-4.5,2.3-5.9c3.3-3.5,8.5-3.9,13.4-3c2.8,0.5,5.5,1.5,7.7,2.6c0.1,0.1,0.2,0.1,0.4,0.2
			c0,0,0,0,0,0C440.4,101.2,444.9,104.3,448.4,107.9z"/>
		<path class="st1" d="M451.7,362.6C451.1,362.7,451.2,362.7,451.7,362.6L451.7,362.6z"/>
		<path class="st2" d="M449.2,115l0.5,3.4c-0.3,0-0.6,0.1-0.9,0.1c-7.4,1.2-12.8,4.4-11.9,12.8c0.4,3.4,0.9,7,1.5,10.6l-2,0.2
			c-1-5.8-2.8-11.1-6.9-14.3c-5.3-4-13.1-3.7-19.9-1.2l-0.8-2.1c1.8-0.6,3.2-1.4,3.5-2.7c0.5-2.5-1.7-4.1-3.4-5.5
			c-5-4.1-12.5-6-18.5-8.2c-14.7-5.3-35.2-5-48,5c-1.2,0.9-2.8,5-3.5,1.1c-0.2-1.2,2.9-4.5,3.4-5.9c1.4-3.3,0.3-5,0.5-7.9
			c0.1-1-2.3-1.8-0.2-2.3c3-0.8,3,3.3,4.4,4.6c1.9,1.8,4.4,1.5,6.8,1.1c7.8-1.2,14.6-3.4,22.6-2.9c8,0.5,15.7,2.7,23,5.9
			c3,1.3,6.8,3.8,8.8-0.5c0.2-0.5,0.4-1.1,0.5-1.6l3.7,0.2c-0.3,4.1,1.3,8.7,4.7,10.3c3.6-6.8,14-10.9,21.2-7.5
			c0.5,0.3,3.9,1.6,3.2,2.8c-1.1,1.8-6.7-0.7-8.3-0.8c-3.7-0.1-8.8,1.6-10.1,5.5c-4.5,13.2,18.1,1.8,21.5,0.8
			C445.6,115.6,447.6,115.4,449.2,115z"/>
		<path class="st1" d="M449.4,134.9c-0.2,0-0.4,0-0.5-0.2C449,134.7,449.1,134.8,449.4,134.9z"/>
		<path class="st1" d="M441.9,347.5c4,2,12.9,9.6,5.3,12.3c-8.1,2.9-19.9,1.2-28.6-0.7c-0.1,0-0.3-0.1-0.4-0.1c-0.1,0-0.1,0-0.2,0
			c0,0,0,0-0.1,0c-0.1,0-0.3-0.1-0.5-0.1c-0.1,0-0.1,0-0.2,0c-0.2,0-0.4-0.1-0.6-0.1c0,0,0,0-0.1,0c-0.1,0-0.1,0-0.2,0
			c-0.1,0-0.1,0-0.2,0c0,0-0.1,0-0.1,0c0,0,0,0-0.1,0c0,0,0,0,0,0c0,0,0,0,0,0c-7.6-2.1-7.7-7.3-7.4-14.7c0.1-3-0.7-8.2,1.4-10.7
			c2.2-2.4,7.5-2.9,10.5-3.7c7-2,16.1-3.8,16.2,6.8c0,6.1-4.7,6.8-9.7,6.8c-2.3,0-13.8-1.4-10.6,3.2c1.7,2.6,9.5,1.1,11.8,0.6
			C433.2,345.8,437.1,345.1,441.9,347.5z"/>
		<path class="st1" d="M445.7,363.6l0.1,0.3c-6.6,1.4-13.2,3.1-19.9,4.1c-10,1.6-20.1,1.3-30.2,1.2c4.9-2.9,8.2-12.1,13.7-10.5
			c7.7,2.1,14.6,4.3,22.8,5C436.4,364,441.3,364.5,445.7,363.6z"/>
		<path class="st1" d="M444.7,386.4c-0.1,0-0.3,0.1-0.4,0.1c-6.1,1.3-1.6-0.1,0.2-0.1C444.6,386.4,444.7,386.4,444.7,386.4z"/>
		<path class="st1" d="M445.3,383c-14.9-0.4-28.6,4-42.1,9.6c-6.1,2.6-12.3,5.1-18.8,6.6c-2.4,0.5-7,2-9.3,1.2
			c-2.1-0.7-5.8-4.3-7.9-5.6c21,2.2,39.9-9.7,60.2-12.5c0.1,0,0.2,0,0.3,0c0.1,0,0.2,0,0.3,0c0.1,0,0.2,0,0.3,0c0.1,0,0.1,0,0.2,0
			c0.2,0,0.3,0,0.5-0.1c0,0,0,0,0,0C434.5,381.4,440,381.8,445.3,383z"/>
		<path class="st1" d="M390.5,400.3c18.4-5,34.2-15.2,54-13.9c-1.8,0-6.3,1.4-0.2,0.1C425.7,390.5,410.2,400.1,390.5,400.3z"/>
		<path class="st1" d="M449,420.9c-5.6,4.4-12.1,7.8-19.2,8.7c-0.1,0-0.2,0-0.3,0c-8.6,1-17.6-0.3-25.8-3.1
			c7.6,0.2,14.4-3.7,21.8-3.7C433.8,422.8,440.9,423.5,449,420.9z"/>
		<path class="st1" d="M437.7,289.7c7.4,8.7,3.9,21.3-3.8,28.5c-6,5.6-18.9,12.3-27.2,8.6c-2-0.9-3.3-2-4.1-3.2
			c-3.8-6.1,5.8-15.2,10.9-18.8c1.9-1.4,14-5.1,14.3-6.1c0.2-0.8-2-1.9-2.3-2.3c-0.9-1-3-4.8-3.9-5.4c-2.2-1.6-0.2-1.2-2.1,0.1
			c-1.7,1.1-3.3,5.3-4.7,7.1c-3.5,4.4-7.7,8.1-12.8,10.7c-8.9,4.7-21.7,7.3-30.3,0.7c-2-1.5-3.6-3.3-4.8-5.4
			c-4.1-6.7-4.6-15.7-3.2-23.1l0-0.2c0-0.1,0-0.1,0-0.2c0-0.1,0-0.2,0.1-0.3c0,0,0,0,0-0.1c1-4.4,2.8-8.9,5.3-12.7
			c2.7-3.9,6.5-6.4,9.7-10c1.1-1.3,2.2-3.1,3-5c1.4-3.6,1.5-7.7-1.6-10.3c-9.4-7.9-35.5,17.8-35.1,18.2c0.9,1.1,4,1,5.3,2
			c0.4,0.3,5,5.6,4.6,6.1c1.8-2.2,0.6-7.9,2.1-10.8c2-3.9,5.5-6.9,9-9.4c4.1-2.9,15.7-8.6,13.7,2c-0.1,0.5-0.3,1-0.5,1.5
			c-1.5,3.5-5.3,6.1-7.9,8.6c-4.1,3.9-7.5,8.3-11.1,12.6c-2.6,3.1-5.5,6.4-9.8,6.6c-0.5,0-0.9,0-1.4-0.1c-5.3-0.7-8.8-6.8-9.3-11.7
			c-0.6-5.3,1.1-10.5,3.6-15.1c1.1-2,8.3-10.8,7.3-12c-2.8-3.2-7.9,5.6-9.3,6.5c-4.7,3.2-5-3.8-4.8-7.7c0-0.2,0-0.3,0-0.5
			c0.8-12.4,9.8-14.7,20.4-12.7c4,0.7,8.1,1,12.2,1.4c6.9,0.7,13.7,1.6,19.6,5.3c9.1,5.7,14.4,16.7,13.3,27.3
			c-1.1,10.6-7.8,14.9-13.5,23.2c-2.3,3.4-4.3,7-4.1,11.2c0.1,1.1,0.1,3.1,1,3.2c2.1,0.3,1.2-2.5,1.5-3.9
			c2.1-11,11.6-17.5,22.5-15.2c4.8,1,10.7,1.8,16.2,3.5C430.3,284.1,434.7,286.2,437.7,289.7z"/>
		<path class="st1" d="M351.1,377.6c-0.4-1-0.9-1.8-1.5-2.7c29.5,17.8,67.8-0.3,99.1-2.5c-9.7,2.1-18.8,5.9-28.6,7.9
			c-9,1.9-17.7,4.9-26.5,7.5c-7.9,2.3-18.8,6.1-27.1,4.6c-2-0.3-2.7-1-3.1-1.9c-0.5-1-0.8-2.5-2.3-4.4c-2.2-2.8-5.7-5.4-9.4-4.6
			c0.1-1.2,0-2.4-0.5-3.6C351.2,377.8,351.2,377.7,351.1,377.6z"/>
		<path class="st1" d="M429.8,429.6c0.1,0,0.2,0,0.3,0c-0.3,0-0.5,0.1-0.8,0.1c0,0,0.1,0,0.1,0C429.6,429.6,429.7,429.6,429.8,429.6
			z"/>
		<path class="st1" d="M422,467c3.7,5.1,9.2,13.9,7.8,20.3c0.2-1-1.8-3.3,0,0c-3.5-6.2-9.2-11.4-13.2-17.4
			c-4.3-6.4-7.5-13.5-12.2-19.6C411,455.2,417.2,460.3,422,467z"/>
		<path class="st1" d="M429.8,487.3C428,484,430,486.3,429.8,487.3L429.8,487.3z"/>
		<path class="st1" d="M418.4,489.4c5,6.1,14.2,16,11,24.7l-0.1,0.3c0,0.1-0.1,0.2-0.1,0.3l0,0.1c-0.9,2.2-2.1,4.2-3.1,6.3
			c-0.2-10.4-8.4-18.9-14.4-26.6c-6.3-8-10.4-17.1-15.2-26.1c-9.2-17.2-25.5-30.2-32-48.7c11.9,16,28.1,27.9,37.6,45.7
			C406.8,474.2,412.1,481.7,418.4,489.4z"/>
		<path class="st1" d="M429.3,514.3l-0.1,0.3C429.2,514.5,429.3,514.4,429.3,514.3z"/>
		<path class="st1" d="M429.2,382c0,0-0.1,0-0.1,0c0,0,0,0,0,0C429.1,382,429.1,382,429.2,382z"/>
		<path class="st1" d="M427.7,488.4c1.9,0.6,2.2,1.8,1,3.6c-0.4,1.6-0.7,3.2-0.9,4.9c-6-9.3-14.1-16.7-19.6-26.4
			c-5-8.9-9.4-17.6-16.6-25.1c-7.2-7.5-15.2-14-21.6-22.3c-3.2-4.2-6.5-8.5-9.2-13c-2.6-4.2-4.4-8.3-9.3-10.3c1.2,0,2.4,0,3.7,0
			c2.6,0,5.5,0.1,7.4-2c-0.2,3.7,4.3,9.1,6,11.9c2.6,4.2,5.1,8.5,7.9,12.5c6.3,9.2,13.7,16.5,22,23.8c7.5,6.5,10.5,16.1,15.8,24.4
			c2.9,4.6,6.1,9,9.4,13.3C424.9,485.3,426.8,486.8,427.7,488.4z"/>
		<path class="st1" d="M428.6,469c0.5,1.3,1,2.7,1.3,4.1c-8.1-16.3-24-24.1-36.9-36c-6.4-5.9-11.9-12.6-16.7-19.7
			c-1.4-2-11.1-20.8-13.3-20.1c0.5-0.8,0.9-1.6,1-2.5c3.2,3.1,7,4.7,9.7,8.4c2.5,3.4,3.9,7.3,6.3,10.8c2.5,3.6,5.8,5.6,8.7,8.6
			c3,3,5.1,6.5,8.6,9.3c6.7,5.4,15.2,9.5,20.4,16.6c4.2,5.6,7.6,12.7,10.3,19.3c0.1,0.2,0.2,0.4,0.2,0.6c0.1,0.3,0.2,0.5,0.2,0.4
			c0,0,0,0.1,0,0.1C428.6,469.1,428.6,469,428.6,469z"/>
		<path class="st1" d="M428.2,370.3l0.3,1.8c-0.3,0.1-0.6,0.1-1,0.2c-15.2,2.8-30.3,6.9-45.8,7.2c-7,0.1-13.9-0.6-20.7-2.3
			c-3.6-0.9-7.1-2.1-10.6-3.5c-0.1,0-0.2-0.1-0.3-0.1c-2.7-1.2-4.6-2.7-7.3-4.1c5.5-1.6,12.6-7.8,18.3-5c2.4,1.2,3.9,3.8,6.5,5
			c2.7,1.3,5.7,1.7,8.7,2.1c0,0,0.1,0,0.1,0c4,0.5,8.2,0.8,12.3,0.1c3.9-0.7,6.8-0.1,10.8,0.3c7.8,0.8,15.7,0.3,23.5-0.7
			C424.8,370.9,426.5,370.6,428.2,370.3z"/>
		<path class="st2" d="M393.9,77.9c-8.7-3.5-20.1-6.2-30.2-4.9l-0.4-3c2.6-0.4,5.9-2,8.4-2.1c15.1-0.6,30.5,7.4,42.7,15.4
			c2.8,1.8,5.7,3.7,8,6.2c2.2,2.4,1.6,2.1,4.5,3.1c0.5,0.2,1,0.3,1.6,0.4l-0.6,2.8c-4.9-0.9-10.1-0.5-13.4,3
			c-1.4,1.5-2.1,3.6-2.3,5.9l-3.7-0.2c0.3-2.8-2.1-5.2-4.2-6.3c-6.2-3.3-13.1-7.4-19.8-9.8c-2.2-0.8-22.1-2.2-22.1-1.3
			c-0.7-2.5,11.1-4,12.9-4c5.1-0.1,10.5,1.1,15.3,3.1c4.4,1.9,8.2,5.1,12.8,6.7c5.4,1.9,9.3-0.4,14.6-1.7
			c-7.2-5.1-14.3-9.4-22.4-12.9c0,0,0.1,0,0.1,0c0,0-0.1,0-0.2-0.1c0,0-0.1,0-0.1,0c0,0,0,0-0.1,0c0,0-0.1,0-0.2-0.1
			c0,0-0.1,0-0.1,0c0,0,0,0-0.1,0c0,0,0,0-0.1,0c0,0-0.1,0-0.1,0l0,0c0,0-0.1,0-0.2-0.1c-0.2-0.1-0.4-0.1-0.5-0.2
			C394,77.9,393.9,77.9,393.9,77.9z M391.2,76.8C391.1,76.8,391.1,76.8,391.2,76.8C391.1,76.8,391.2,76.8,391.2,76.8z M391.8,77.1
			c-0.1,0-0.2-0.1-0.3-0.1C391.6,77,391.7,77,391.8,77.1z M393.4,77.7c-0.1,0-0.3-0.1-0.4-0.1c-0.3-0.1-0.6-0.3-0.8-0.3
			c0.3,0.1,0.5,0.2,0.8,0.3C393.1,77.6,393.3,77.6,393.4,77.7z M411.1,99.9c0.2-0.4,0.4-0.8,0.6-1.2
			C410.4,98.5,410.2,98.9,411.1,99.9z"/>
		<path class="st1" d="M428.1,467.9c0,0.1,0.2,0.4,0.2,0.6C428.3,468.2,428.2,468,428.1,467.9z"/>
		<path class="st1" d="M427.9,429.8c0.1,0,0.2,0,0.3,0C428,429.8,427.9,429.8,427.9,429.8z"/>
		<path class="st2" d="M425.4,296.2c0.3,0.4,2.5,1.5,2.3,2.3c-0.2,1-12.3,4.8-14.3,6.1c-5.1,3.6-14.7,12.8-10.9,18.8l-2.7,0.6
			c-1.9-3-4.5-5.7-7.8-6.5c-6.8-1.6-7.7,4.6-7.5,9.8c0.1,4.4-0.1,9.2,0.4,13.6c0.3,2.1,1,3.6,1.6,5.6c0.1,0.4,1.5,0.8,1.6,1.4
			c-0.4-0.9-5.9,2.8-6.5,3.4c-0.9,1-2.3,4.7-3.8,3.7c-0.5-0.4,2.9-10.1,3.2-11.4c0.9-4.2,1.1-8.3,0.3-12.5
			c-2.1-11.5-11.2-17.7-16.9-26.5l2.2-0.7c1.3,2.1,2.9,3.9,4.8,5.4c8.7,6.5,21.4,3.9,30.3-0.7c5-2.6,9.3-6.3,12.8-10.7
			c1.4-1.8,3-6,4.7-7.1c2-1.3-0.1-1.7,2.1-0.1C422.4,291.4,424.6,295.2,425.4,296.2z"/>
		<path class="st2" d="M426.1,280.3l-0.6,2.3c-5.4-1.7-11.4-2.5-16.2-3.5c-10.8-2.3-20.3,4.2-22.5,15.2c-0.3,1.4,0.6,4.2-1.5,3.9
			c-0.9-0.1-0.9-2.1-1-3.2c-0.3-4.2,1.7-7.8,4.1-11.2c5.7-8.3,12.4-12.5,13.5-23.2h2.6c-0.2,3.3,1.3,7.4,3.6,10
			C412.3,275.4,418.9,278.4,426.1,280.3z"/>
		<path class="st1" d="M405.1,489.4c6.8,10.7,23.8,25.3,17.1,39.4c0.3-1.2-1.5-6.6,0,0.1c-3.5-16-18.5-25.4-24.5-39.6
			c-3-7-8.4-12.3-12.1-18.9c-4-7.2-3.6-15.1-5.8-22.8C391,460.1,396.1,475.4,405.1,489.4z"/>
		<path class="st1" d="M422.1,528.9C420.7,522.2,422.5,527.6,422.1,528.9C422.1,528.8,422.1,528.9,422.1,528.9z"/>
		<path class="st1" d="M418.2,359c0.1,0,0.3,0.1,0.4,0.1c-0.1,0-0.1,0-0.2,0C418.3,359.1,418.3,359.1,418.2,359z"/>
		<path class="st1" d="M401.2,499.7c0,0,0-0.1-0.1-0.3v0c0-0.1,0-0.1-0.1-0.2c-0.1-0.4-0.2-0.7-0.2-0.6l0,0
			c1.5,3.8,8.8,10.2,11.5,14.2c3.9,5.7,7.1,11.9,8.4,18.7c-4.2-0.7-9.5-8-11.6-11.4C405.2,513.8,403.3,506.6,401.2,499.7z"/>
		<path class="st1" d="M417.5,358.9C417.4,358.9,417.4,358.9,417.5,358.9c-0.1,0-0.2,0-0.2,0C417.3,358.8,417.4,358.9,417.5,358.9z"
			/>
		<path class="st1" d="M417.3,433.2c0.7,1.3-1.1-0.2-0.2-0.2c0,0,0.1,0,0.1,0C417.2,433.1,417.3,433.1,417.3,433.2z"/>
		<path class="st1" d="M409.8,431.8c4.5,4,10.3,9.7,11,15.6c-6.7-9.4-18.8-13-26.5-21.4c4.7,2.5,9.8,4.3,15,5.5
			C404.9,430.6,410.9,432.9,409.8,431.8z"/>
		<path class="st1" d="M416.4,358.6C416.4,358.6,416.4,358.6,416.4,358.6c-0.1,0-0.1,0-0.2,0C416.3,358.6,416.3,358.6,416.4,358.6z"
			/>
		<path class="st1" d="M416.2,358.6c0,0-0.1,0-0.1,0C416.2,358.6,416.2,358.6,416.2,358.6z"/>
		<path class="st1" d="M362.5,87.4c0-0.9,19.9,0.5,22.1,1.3c6.7,2.4,13.6,6.4,19.8,9.8c2,1.1,4.5,3.4,4.2,6.3
			c-0.1,0.5-0.2,1-0.5,1.6c-2,4.3-5.8,1.8-8.8,0.5c-7.3-3.1-15.1-5.3-23-5.9c-8.1-0.6-14.9,1.7-22.6,2.9c-2.4,0.4-4.9,0.7-6.8-1.1
			c-1.3-1.3-1.4-5.4-4.4-4.6c-2.1,0.5,0.3,1.3,0.2,2.3c-0.2,2.9,0.9,4.6-0.5,7.9c-0.6,1.3-3.7,4.7-3.4,5.9c0.8,4,2.3-0.1,3.5-1.1
			c12.8-10,33.3-10.2,48-5c6,2.2,13.5,4.1,18.5,8.2c1.7,1.4,3.9,3,3.4,5.5c-0.3,1.3-1.7,2.2-3.5,2.7c-2,0.6-4.4,0.9-5.8,1.1
			c-7.7,1-11.4-1.6-17.4-6.1c-3.6-2.7-7-4-10.3-3.6c-3,0.3-5.8,2.1-8.6,5.3c-2.1,2.4-3.5,5.6-6.9,6.4c-2.9,0.7-5.6-0.9-8.6,0.1
			c-2.4,0.8-4,3.1-6.3,4c-3.6,1.2-7.4-0.4-11.1-0.6c-3.5-0.2-7,0.2-10.4,1.3c-4.9,1.6-9.5,4.4-13,8.3c-5.8,6.4-7,15.9-13.5,21.7
			c-5.7,5.1-13.2,6.5-17.4,13.4c-1.6,2.6-1.4,4.4-5.1,4.1c-1.7-0.1-6.7-5.1-7.5-4.5c-0.7,0.6,5,10.9,5.5,12.1
			c1.9,4.8,3,9.8,3.7,14.9c0,0,0,0,0,0c1.3,10.1,2.3,22.5,0.4,32.5c-1.3,6.7-7.4,10.6-13.6,13.7c-2.8,1.4-5.7,2.7-8.1,4
			c-4.2,2.3-9.7,6.3-14.9,4.7c-2.4-0.8-3.6-2.5-5.6-4c-2.4-1.9-5.5-2.3-7.9-3.9c-2.1-1.4-2.7-1.7-2.7-4.8c0-2.6,2-5,2-7.2
			c0.1-5-2.5,0.6-4.1,2.8c-3.4,4.6-6.3,6.1-11.7,6.4c-5.5,0.3-10.8,2.1-16.3,2.5c-7.1,0.5-14.1-3.4-16-9.5c-0.8-2.5-0.7-5.5,0.6-8.6
			c1.3-3,3.8-5.4,7-7.4c6-3.8,14.2-5.9,19.7-6.7c11.4-1.7,23.4,2.2,33.8,6.8c5.5,2.4,8.9,5.2,9.1,11.3c0,1.6-1,5,1.4,5.2
			c2.3,0.2,3.7-3.8,3.8-5.4c0.4,0.2,3.8,1.7,4.3,0.7c0.2-0.4-6.6-7.3-7.3-8.5c-3-5.3-4.2-12-4.5-18c-0.4-7.1-0.2-15.3,1.7-22.6
			c0.8-3.2,2-6.3,3.7-9.1c5.2-8.8,15.1-11.5,23.6-16c4.2-2.1,18.8-11.2,13.9-17.6c-2.8-3.8-5.3,5.2-7.1,7.3c-4,4.7-10,7-15.4,9.4
			c-3,1.3-5,0.9-6.2-0.6c-2.8-3.1-2.2-10.9-1.7-15.1c1-8,1.6-16.1,2.6-24c0.2-1.2,0.3-3.8,1.2-4.8c0.6-0.7,2.2-0.8,2.5-1.1
			c2.9-3.6-0.7-4.5-4.5-3.9c-1.4,0.2-6.7,0.3-7.4,1.4c-1.2,2.1,1.3,1.7,2,2.3c2.3,1.9,2.3,0.1,2.3,4.1c0,3.3-0.5,6.7-0.8,10
			c-0.8,8.1-5.7,24.8,0.6,32.4c0.8,1,1.8,1.8,3,2.4c-2.3,1.2-5.6,5.4-7.8,6c-1.9,0.5-5.3-1-6.9-1.9c-5.6-3-8-9.1-8.5-15.2
			c-0.5-6.4,0.7-13,1.2-19.3c0.6-7,1.3-13.9,5.2-20c5.2-8.1,19.3-17.8,29.2-12.2c9.1,5.2,10.3,24.5,7,33.1c-1,2.5-2.3,4.6-4.1,6.6
			c-0.9,1.1-5.2,4-5.4,5.3c-0.3,1.9,5.7,5.9,7.5,4.3c0.7-0.6,2.7-7.2,3.7-8.7c1.5-2.4,2.7-4.7,4.5-6.9c4.1-4.9,8.9-9.2,14.5-12.2
			c5.4-2.9,11.5-4.4,17.7-4.1c3.4,0.2,6.4,1.1,9.6,2c3,0.8,6.3,1.9,4.3-1.9c-2-3.6-7.7-3.6-10.5-6c-3.5-2.9-1.8-7.5,0-11.3
			c0.3-0.7,0.7-1.4,1-2.1c3-6.4,6.3-6.9,12.6-9.3c7-2.6,11.4-8.1,17.4-12.2c3.6-2.4,7.7-3.8,12.1-4.3c10.1-1.3,21.5,1.4,30.2,4.9
			c0,0,0.1,0,0.1,0c0.2,0.1,0.4,0.1,0.5,0.2c0.1,0,0.1,0.1,0.2,0.1l0,0c0,0,0.1,0,0.1,0c0,0,0,0,0.1,0c0.1,0,0.1,0,0.2,0.1
			c0.1,0,0.1,0,0.2,0.1c0,0,0,0,0.1,0c0,0,0.1,0,0.1,0c0,0,0.1,0,0.1,0c8.1,3.4,15.2,7.8,22.4,12.9c-5.2,1.3-9.2,3.6-14.6,1.7
			c-4.5-1.6-8.3-4.8-12.8-6.7c-4.7-2-10.1-3.1-15.3-3.1C373.6,83.4,361.8,84.9,362.5,87.4z"/>
		<path class="st1" d="M411.1,99.9C411,99.5,411.3,99.5,411.1,99.9L411.1,99.9z"/>
		<path class="st1" d="M409.8,431.8c1.1,1.1-4.9-1.2-0.5-0.2C409.4,431.6,409.6,431.6,409.8,431.8
			C409.7,431.7,409.8,431.7,409.8,431.8z"/>
		<path class="st2" d="M408.7,124.5l0.8,2.1c-3.8,1.4-7.3,3.4-9.8,5.8c-4.8,4.6-5.5,12.5-6.1,18.8c-0.3,3.1-0.1,6.1-0.3,9.2
			c-0.2,3.1-1.6,7-1.2,10.1c0.9,8.4,8.9,0.2,10.8,3.3c1.3,2.1-3.7,5.1-4.9,7c-1,1.6-1.9,6.7-4.3,5.4c-0.3-0.2-1.7-5.2-2-5.8
			c-2.1-4.1-3.1-7.8-3.1-12.7c0-7.4,2.3-14.7,2.1-22.2c-0.2-6-1-12.7-3-18.5c-3.4-2.6-7.8-7.7-12.2-7.7l-0.3-3.4
			c3.2-0.4,6.6,0.9,10.3,3.6c6,4.5,9.7,7,17.4,6.1C404.3,125.4,406.7,125.1,408.7,124.5z"/>
		<path class="st1" d="M407,355.9C406.8,355.9,406.9,355.6,407,355.9L407,355.9z"/>
		<path class="st1" d="M248.3,348.5C248.3,348.5,248.3,348.5,248.3,348.5C248.2,348.5,248.3,348.5,248.3,348.5z M388.2,348
			c-0.1-0.6-1.5-1.1-1.6-1.4c-0.6-2-1.3-3.5-1.6-5.6c-0.5-4.4-0.3-9.2-0.4-13.6c-0.2-5.2,0.8-11.3,7.5-9.8c3.3,0.8,5.8,3.5,7.8,6.5
			c1.2,1.8,2.1,3.7,2.9,5.4c2.7,6.2,3.7,12.7,3.2,19.4c-0.4,5-3.3,9.6-6.8,13.4c-5.5,6-14.2,7.9-22.3,6.8c-2.3-0.3-4.5-0.8-6.6-1.6
			c-14.4-5.1-4.7-19.4-6.1-30c-1.5-11.7-10.3-23.3-19.2-30.6c-2-1.7-4.1-2.8-5.2-5.3c-0.6-1.5,0.3-3.4-1.6-3c-0.1,0-1.7,2.7-2.3,3
			c-0.7,0.4-2.8-0.1-3,0.1c-2.4,2.2-0.2,2.5,2.4,4c9.9,5.9,18.1,13.7,23.1,24.3c5.3,11.2,3.1,26.2-8.3,32.6
			c-6,3.4-13.5,4.9-20.3,5.8c-7,1-15.7-0.7-22.3,2.1c0.1,0,0.2-0.1,0.3-0.1l-0.6,0.3c-0.2,0.1-0.3,0.2-0.5,0.2
			c-4.3,1.8-16.2,5.1-23.9,4c-4.9-0.8-8.1-3.4-6.3-9.5c1-3.4,4-5.2,6.1-8c0.8-1.1,1.5-2.4,2.2-3.6c1-1.6,2-3.1,3.6-3.9
			c4.7-2.4,11.8,0.6,17.1-0.5c10.5-2.2,19.2-14.5,30.5-6.9c1.7,1.1,4.3,7.2,5.2,4.4c0.6-1.9-1.6-7.2-1.6-9.5c0-0.9,1.5-7.7,1-8
			c-1.8-1.1-7.1,13-14.5,4.9c-2.7-3-3.4-7.3-3.8-11.7c-0.4-3.9-0.7-7.9-2.2-11.1c-1.7-3.7-5.6-6.7-6.7-10.4c-1.4-4.6,2.6-8.1,6-10.7
			c1.9-1.4,4-2.7,6.2-3.6c1.6-0.6,4.6-0.4,5.4-2c-0.1,0.2-1.5-6.2-1.2-6.2c-0.7-0.3-8.1,6.5-9.2,7.3c-4.6,3.1-9.6,5.4-15,6.8
			c-3.5,0.9-21.6,1.3-23.2,4.3c0,0,0,0,0,0.1c0,0,0-0.1,0-0.1c0.5-0.7,2,5.2,1.8,5.2c0.7,0.5,7.2-2.9,8.7-3.2
			c8.1-1.4,16,2.3,21.1,8.5c3.5,4.3,5.7,9.8,6.2,15.3c1,10.5-3.7,21.1-15.5,23.5c-4.9,1-10-0.9-14.7,0.1c-3.6,0.8-5.4,3.9-7.4,6.8
			c-0.6,1-1.3,1.9-2,2.8c-6.4,7.1-16.4,10.7-25.8,8.7c-9-2-18.6-9.6-19-19.5c-0.2-4.4,1.8-8.3,5.1-11c0.8-0.7,10-4.8,10-4.9
			c-0.6-4.3-16.5,5.5-18.7,4.9c-7.7-2.2-8.9-17.2-9.6-23.4c0-0.4-0.1-0.7-0.1-1.1c-0.2-4.6,1.2-7.6,2.1-12.4
			c0.7-4.1,1.2-8.2,3.8-11.5c6.6-8.4,14.8-2.5,23.2-1.9c-2.4-0.4-8.6-5.2-9.9-7.3c-2.3-3.8-1.7-7.5,1.3-10.6
			c4.2-4.4,9.9-3.8,15.1-1.9c2.9,1.1,6.8,2.3,10.3,3.8c2.1,0.9,4,1.9,5.4,3c4.1,3.3-2.7,8.5-4.6,12.4c-2,4-3.3,8.4-3.8,12.9
			c-0.1,0.9-0.2,1.7-0.2,2.5c-0.4,3.3-1,5.4-5.5,6c-5.3,0.7-10.3-0.6-15.6,1c-4.7,1.4-8.1,3.8-11.8,6.8c-4.6,3.7-3.1,4.5,1.7,2.1
			c5.1-2.5,10.7-4.6,16.4-4.4c10.1,0.2,20.5,7.4,18.7,18.6c-0.8,5.1-4,9.5-7.8,12.8c-2.1,1.9-4.6,3.4-7,4.9c-0.5,0.3-5,2.2-5.7,2.2
			c0.4,0.5,2.7,4.2,2.8,4.5c0.6,1.5-1.4,3.4,1.4,2.3c1.6-0.7,3.7-5,5.1-6.4c2.4-2.4,5.2-4.5,7.7-6.8c2.3-2.1,4.4-4.3,6-6.9
			c1.3-2.1,1.8-5,3.4-6.9c3.6-4.5,10.9-4.1,16.1-3c2.8,0.6,14.1,7.3,14.8,6c2-3.8-13.2-9-15.2-9.5c-5.8-1.4-12.9-0.3-17.8-4.3
			c-4.9-3.9-5.4-11-4.9-16.8c0-0.6,0.1-1.2,0.2-1.8c1.4-11.3,7.2-24.5,18.5-28.3c5.5-1.8,11.2-2.8,16.7-4.5c0.8-0.3,1.7-0.6,2.5-0.9
			c5.9-2.3,11.7-4.9,17.8-6.7c3-0.9,8-2.5,10.6,0.2c1.8,1.9,1.1,5,1,7.3c-0.1,4,0.6,7.1,3.3,10.1c2.6,3,6.2,4.5,9.7,5.8
			c1.6,0.6,3.2,1.2,4.8,1.8c6.5,2.8,6.2,9.5,8.8,15.8c0.8,1.9,1.7,3.6,2.8,5.2c5.8,8.8,14.8,14.9,16.9,26.5
			c0.8,4.2,0.6,8.3-0.3,12.5c-0.3,1.3-3.7,11-3.2,11.4c1.5,1.1,2.9-2.6,3.8-3.7C382.3,350.8,387.9,347.2,388.2,348z"/>
		<path class="st1" d="M396.2,211.5l-0.6-2.8C396,209.6,396.2,210.6,396.2,211.5z"/>
		<path class="st1" d="M395.4,78.5C395.4,78.5,395.4,78.5,395.4,78.5C395.4,78.5,395.4,78.5,395.4,78.5z"/>
		<path class="st1" d="M395.3,78.5c0,0-0.1,0-0.2-0.1C395.2,78.4,395.2,78.5,395.3,78.5z"/>
		<path class="st1" d="M395.1,78.4c0,0-0.1,0-0.2-0.1C395,78.3,395,78.4,395.1,78.4C395,78.4,395.1,78.4,395.1,78.4z"/>
		<path class="st1" d="M392.1,212.2c0,3-2.6,6.1-4.7,8c-5.1,4.6-11.4,5-17.9,4.2c-8.3-1-17.1-3.9-24.6-2.3
			c-5.7,1.2-14.8,7.6-19.5,1.1c-4.1-5.7-0.4-16.7,0.4-23c0.2-2,0.4-3.9,0.5-5.9c0.4-7.5,0.1-15.1-0.2-22.7c-0.1-1.6-0.2-3.3-0.1-4.9
			c0.1-1.4,2.2-6.1,1.8-7.2c-0.3-0.9-5.3-5.1-6.2-5.2c-2.9-0.3,2,29.5,2.1,32.3c0.1,2.5,0.1,5,0,7.5c-0.5,9-2.7,18-6.7,26
			c-4,7.8-15.3,16.1-23.8,9.2c-7.6-6.1-12.9-18.2-14.2-27.7c0-0.3-0.1-0.6-0.1-0.9c-1.1-10.1,1.6-21.2,10-27.8
			c3.5-2.8,8.5-4,9.9,1.4c0.9,3.4-0.9,8.7-1,12.3c-0.1,4.7-0.7,22.8,6.3,23.3c6.4,0.5,1.8-5.4,0.3-7.4c-2.8-3.8-3.5-8.2-3.4-12.9
			c0.1-17.8,3.4-48.9,23.4-54.6c2.4-0.7,5.1-1,8.1-0.9c0.1,0,0.2,0,0.2,0c0,0,0.1,0,0.1,0c0,0,0,0,0,0c0.1,0,0.1,0,0.2,0
			c0,0,0,0,0,0c0,0,0,0,0.1,0c0.1,0,0.1,0,0.2,0c0,0,0.1,0,0.1,0s0,0,0,0c6.3,0.6,6.6,5.9,6.5,11.6c-0.2,7.1-1.4,14.1-1.5,21.3
			c-0.1,8.1,2,15.3,3.6,23.1c1.6,7.7,0.4,12.8-2.9,19.6c-1.2,2.5-2.4,4.5,1.5,2.5c2.6-1.4,3-4,6.6-2.2c2.1,1.1,3.8,5.6,5.1,1.7
			c0.1-0.4-1.9-2.5-2-2.6c-0.8-2.5-0.8-5.4-0.9-8c-1-15.8-8.2-31.3-6.1-47.3c0.7-5.7,2.6-15.1,7.6-18.7c7.2-5.1,9.1,5.7,9.4,10.6
			c0.6,7.7,1.6,15.1,3.5,22.3c1.8,7.2,4.5,14.1,8.5,20.8c3.6,6.1,8,11.3,13.5,15.7C388.5,206.8,392.1,208.4,392.1,212.2z"/>
		<path class="st1" d="M385.6,401.4C396.4,405.8,382.6,401.9,385.6,401.4L385.6,401.4z"/>
		<path class="st1" d="M385.5,415.7c-1-1.1,5.5,0.9,3.6,0.8c0,0-0.1,0-0.1,0c-0.5-0.1-1.1-0.2-1.7-0.3c-0.2,0-0.4-0.1-0.6-0.1
			c-0.2,0-0.5-0.1-0.7-0.2C385.8,415.8,385.7,415.8,385.5,415.7C385.5,415.7,385.5,415.7,385.5,415.7z"/>
		<path class="st1" d="M387.7,127C388.4,128.9,385.5,125.3,387.7,127L387.7,127z"/>
		<path class="st2" d="M380.1,242.3c3.1,2.6,3,6.7,1.6,10.3l-2.5-0.7c0.2-0.5,0.4-1,0.5-1.5c2-10.5-9.6-4.9-13.7-2
			c-3.5,2.5-7,5.5-9,9.4c-1.5,2.9-0.3,8.5-2.1,10.8c0.4-0.6-4.1-5.8-4.6-6.1c-1.3-0.9-4.4-0.9-5.3-2
			C344.6,260,370.7,234.3,380.1,242.3z"/>
		<path class="st2" d="M363.6,281c-1.4,7.4-0.8,16.4,3.2,23.1l-2.2,0.7c-1.1-1.6-2-3.3-2.8-5.2c-2.6-6.3-2.3-13-8.8-15.8
			c-1.6-0.7-3.2-1.2-4.8-1.8l0.8-2.3c0.4,0.1,0.9,0.1,1.4,0.1c4.3-0.2,7.3-3.4,9.8-6.6c3.6-4.4,7-8.7,11.1-12.6
			c2.6-2.5,6.4-5.1,7.9-8.6l2.5,0.7c-0.7,1.9-1.8,3.6-3,5c-3.1,3.6-7,6.1-9.7,10c-2.6,3.7-4.4,8.2-5.3,12.7c0,0,0,0,0,0.1
			c0,0.1,0,0.1,0,0.2c0,0.1,0,0.2-0.1,0.3L363.6,281z"/>
		<path class="st2" d="M305.8,371.2c0.2-0.1,0.4-0.2,0.7-0.3c0.1-0.1,0.3-0.1,0.5-0.2c0.1,0,0.2-0.1,0.3-0.1
			c6.6-2.8,15.3-1.1,22.3-2.1c6.8-1,14.3-2.4,20.3-5.8c11.4-6.4,13.6-21.4,8.3-32.6c-5-10.6-13.2-18.4-23.1-24.3
			c-2.6-1.5-4.8-1.8-2.4-4c0.2-0.2,2.3,0.3,3-0.1c0.6-0.3,2.2-3,2.3-3c1.9-0.4,1,1.6,1.6,3c1.1,2.5,3.2,3.6,5.2,5.3
			c8.9,7.3,17.6,18.9,19.2,30.6c1.4,10.7-8.3,25,6.1,30c2.1,0.7,4.3,1.3,6.6,1.6l-0.3,2.4c0,0-0.1,0-0.1,0c-3-0.4-6-0.9-8.7-2.1
			c-2.6-1.2-4.1-3.8-6.5-5c-5.7-2.8-12.8,3.4-18.3,5c2.7,1.4,4.6,3,7.3,4.1l-0.7,1.5c0.6,0.8,1.1,1.7,1.5,2.7c0,0.1,0.1,0.2,0.1,0.3
			c0.4,1.2,0.6,2.4,0.5,3.6c3.8-0.7,7.2,1.8,9.4,4.6c1.5,1.9,1.7,3.3,2.3,4.4l-2.5,0.4c-1.6-3.9-7.7-7.3-10.4-6.5
			c-0.9,0.3-2.2,1.9-3.3,2.4c-1.8,0.8-3.7,0.8-5.6,0.9c-4.4,0.2-8.9-0.4-13.1-1.7l-1-0.4c-3.9-1.4-14.1-8.5-7-13
			c-3.6,0-7.1-0.6-10.6,0.4c-3.6,1-6.8,3-10.4,3.9c-5.5,1.4-12.1,1.9-17.6,0.1l0.7-2.2c7.7,1.2,19.6-2.1,23.9-4L305.8,371.2z
			 M321.7,372.7c-6.3,3.5,1.5,9.1,5,10.4c5,1.9,14,3.7,19.1,1.5c7.4-3.2-0.3-10.7-4.7-12.7c-3.7-1.6-6.2-0.7-10.1-0.1
			C328.8,372.2,323.6,371.7,321.7,372.7z"/>
		<path class="st2" d="M332.3,134.5C332.3,134.5,332.3,134.5,332.3,134.5c-2.9-0.1-5.6,0.2-8.1,0.9l-0.9-3.1
			c3.4-1.1,6.9-1.5,10.4-1.3c3.7,0.2,7.5,1.8,11.1,0.6c2.4-0.8,3.9-3.1,6.3-4c3-1,5.6,0.6,8.6-0.1c3.4-0.8,4.9-4,6.9-6.4
			c2.8-3.2,5.6-4.9,8.6-5.3l0.3,3.4c-1.8,0-3.6,0.9-5.4,3.1c-3.8,4.9-4.6,15.6-5.2,21.5c-0.8,8.2-0.2,16.1,1.7,23.7l-3,0.5
			c-1.8-7.2-2.8-14.6-3.5-22.3c-0.4-4.9-2.3-15.6-9.4-10.6c-5,3.6-6.9,13-7.6,18.7c-2.1,16,5.1,31.5,6.1,47.3c0.2,2.6,0.2,5.5,0.9,8
			c0,0.1,2.1,2.2,2,2.6c-1.3,4-3-0.6-5.1-1.7c-3.5-1.8-3.9,0.8-6.6,2.2c-3.9,2.1-2.8,0-1.5-2.5c3.4-6.8,4.5-11.9,2.9-19.6
			c-1.6-7.8-3.7-15-3.6-23.1c0.1-7.1,1.3-14.2,1.5-21.3c0.1-5.6-0.1-11-6.5-11.6c0,0,0,0,0,0c0,0,0,0,0,0c0,0,0,0-0.1,0
			c0,0-0.1,0-0.2,0c0,0,0,0-0.1,0c0,0,0,0,0,0c-0.1,0-0.1,0-0.2,0c0,0-0.1,0-0.1,0c0,0,0,0,0,0c-0.1,0-0.1,0-0.2,0
			C332.4,134.5,332.3,134.5,332.3,134.5z"/>
		<path class="st2" d="M288.9,233.6c0.2-2.4-3.6-10-5.8-11.1c-3.4-1.7-3.8,1.9-3.8,5.5c0,3,0.1,9,3.7,10.4c3.2,1.2,5.4-1.9,5.9-4.7
			L288.9,233.6z M369.5,224.5l-0.4,3.4c-4.1-0.4-8.3-0.7-12.2-1.4c-10.6-2-19.6,0.3-20.4,12.7c0,0.2,0,0.3,0,0.5l-2.9,0
			c0.2-3.9-1.1-7.2-4.4-8.2c-5.8-1.7-15.5-0.4-20.6,2.4c-7.1,4-11.5,9.6-19.9,11.4c-6.8,1.5-16.6,0.8-22.9,4.7l-3-1.5
			c6.2-3.1,12.3-7.1,13.6-13.7c1.9-10,0.9-22.5-0.4-32.5c0,0,0,0,0,0l2.9-0.4c1.3,9.5,6.7,21.6,14.2,27.7c8.6,6.9,19.9-1.4,23.8-9.2
			c4-7.9,6.2-17,6.7-26l2.5,0.1c-0.1,2-0.3,3.9-0.5,5.9c-0.7,6.2-4.5,17.3-0.4,23c4.7,6.5,13.8,0.1,19.5-1.1
			C352.4,220.6,361.2,223.5,369.5,224.5z"/>
		<path class="st1" d="M363.7,280.3c0,0.1,0,0.2-0.1,0.3l0-0.1C363.7,280.4,363.7,280.4,363.7,280.3z"/>
		<path class="st2" d="M283,66.5c-3-2.2-6-2.8-8.9-2.5l-0.4-3.4c1.9-0.3,3.9-0.3,5.8,0.1c2.6,0.5,5.2,2.5,7.2,2.4
			c3.2-0.2,6.4-2.9,10.2-2.8c4.3,0.1,8.3,1.5,12.4,2.7c7.7,2.4,14.4,3.4,22.5,2.4c7.3-0.9,15.3-3,22.5-0.1c3,1.2,4.8,4.5,7.6,4.8
			c0.5,0,1,0,1.6-0.1l0.4,3c-4.4,0.6-8.6,1.9-12.1,4.3c-6,4.1-10.4,9.5-17.4,12.2c-6.3,2.4-9.6,2.8-12.6,9.3c-0.3,0.6-0.6,1.3-1,2.1
			l-3-0.9c2.2-4.7,2.3-9.6-1.6-14.1c-2.9-3.3-8-4.9-12.2-5.8c-1.1-0.2-8.1-0.3-8.3-1c-0.4-1,2.6-3.3,3.2-4.3
			c0.4-0.8,0.1-5.9,0.8-6.2c0,0.2,10,7.5,11.3,8.2c5.1,2.4,10.9,4.6,16.4,5.5c12.7,2.1,17.4-6.8,27.8-11.3
			c-6.1-4.9-15.4-2.4-22.4-1.4c-9.2,1.3-16.3-0.3-25.1-3.1c-10.6-3.5-20.3-3.7-22.4,7.1l-3.3-0.3C282.3,70.2,283.1,66.5,283,66.5z"
			/>
		<path class="st1" d="M360.9,390.9c0.6,1.3,0.6,2.7-0.1,3.9c-3.3,6-30.7,1.6-32.6-6.3c0.9,0.9,3.9-1.3,0.2-2.5
			c4.2,1.3,8.7,1.9,13.1,1.7c1.9-0.1,3.9-0.1,5.6-0.9c1.1-0.5,2.4-2.1,3.3-2.4C353.3,383.6,359.3,387,360.9,390.9z"/>
		<path class="st2" d="M324.7,254.5c-0.4,0-0.9,0-1.4,0c5.5-0.3,9.9-8.4,10.2-14.9l2.9,0c-0.2,3.9,0.1,10.9,4.8,7.7
			c1.3-0.9,6.5-9.8,9.3-6.5c1,1.2-6.2,10-7.3,12c-2.4,4.6-4.2,9.8-3.6,15.1c0.6,4.9,4.1,10.9,9.3,11.7l-0.8,2.3
			c-3.6-1.4-7.1-2.9-9.7-5.8c-2.7-3-3.4-6.1-3.3-10.1c0-2.3,0.8-5.4-1-7.3c-2.6-2.7-7.6-1-10.6-0.2c-6.1,1.8-11.9,4.4-17.8,6.7
			c-0.8,0.3-1.7,0.6-2.5,0.9l-0.8-2.6c0.1,0,0.2-0.1,0.3-0.1c0,0,0,0,0,0c0,0,0,0,0.1,0c0,0,0.1,0,0.1,0c0,0,0.1,0,0.1,0
			c0,0,0.1,0,0.1,0c0,0,0,0,0,0c1.8-0.7,3.6-1.5,5.3-2.2c-1.6-3-6.6-3.6-10.4-2.6l-0.7-2.7c3.8-0.9,7.5-1.9,11.4-2
			c4.8-0.2,9.5,1,14.3,0.9c-0.2,0-0.4,0-0.6,0c0.2,0,0.4,0,0.6,0c0,0,0.1,0,0.1,0C323.8,254.6,324.3,254.6,324.7,254.5z"/>
		<path class="st1" d="M341.2,372c4.4,2,12.2,9.4,4.7,12.7c-5.2,2.2-14.1,0.4-19.1-1.5c-3.5-1.3-11.3-6.9-5-10.4
			c1.8-1,7.1-0.5,9.3-0.9C335,371.3,337.5,370.3,341.2,372z"/>
		<path class="st1" d="M332.7,69.5c7-1,16.3-3.6,22.4,1.4c-10.5,4.5-15.2,13.4-27.8,11.3c-5.5-0.9-11.4-3.1-16.4-5.5
			c-1.3-0.6-11.3-8-11.3-8.2c-0.7,0.3-0.4,5.4-0.8,6.2c-0.5,1.1-3.5,3.3-3.2,4.3c0.2,0.7,7.2,0.7,8.3,1c4.2,0.9,9.3,2.5,12.2,5.8
			c3.9,4.5,3.8,9.4,1.6,14.1c-4.2,8.9-16.2,16.8-23,19.6c-3,1.2-6,2.2-8.5-0.7c-2-2.4-2.1-5.6-0.4-8.1c2.3-3.3,6.9-3.9,10.4-5.4
			c4.2-1.9,6.8-4.4,9.5-8c1.1-1.5,4.9-6.1,0.9-7.3c-1.5-0.5-3.1,3.9-4.3,5.1c-5.9,5.9-17.3,8.1-24.6,3.9c-1.2-0.7-2.5-1.4-3.8-2.2
			l0.3-2.7c3.1,0.3,9.6,0,10.9,0c4.1-0.2,3-0.7,1.8-4.1c-1.5-4-2.1-8.1-2-12.4c0-1.6,0.2-3,0.4-4.2c2.1-10.8,11.8-10.5,22.4-7.1
			C316.3,69.2,323.4,70.8,332.7,69.5z"/>
		<path class="st2" d="M339.5,337.3c0,2.3,2.2,7.6,1.6,9.5c-1,2.8-3.6-3.3-5.2-4.4c-11.3-7.5-20,4.7-30.5,6.9
			c-5.3,1.1-12.4-1.9-17.1,0.5c-1.6,0.8-2.7,2.3-3.6,3.9l-2.2-0.6c1.9-2.9,3.7-6,7.4-6.8c4.7-1,9.8,0.9,14.7-0.1
			c11.8-2.5,16.6-13,15.5-23.5l2.2-0.2c0.5,4.4,1.1,8.7,3.8,11.7c7.4,8.1,12.7-6,14.5-4.9C340.9,329.6,339.5,336.4,339.5,337.3z"/>
		<path class="st1" d="M329.1,231.5c3.3,1,4.6,4.3,4.4,8.2c-0.3,6.5-4.6,14.6-10.2,14.9c0,0-0.1,0-0.1,0c0,0-0.1,0-0.1,0
			s-0.1,0-0.1,0c-4.8,0.1-9.5-1.1-14.3-0.9c-3.9,0.1-7.7,1.1-11.4,2c-0.9,0.2-1.7,0.4-2.6,0.6c-4.3,1-8.5,1.6-12.9,1.2
			c-0.9-0.1-7.4-2.1-8-1.1c-1.8,3.3,10.7,4.2,12,5c7.2,4.9-9.6,6.1-12.4,5.5c-0.8-0.2-1.6-0.4-2.4-0.7c-6.1-2.2-13.5-8.1-7.6-14.3
			c0.7-0.8,1.6-1.4,2.5-2c6.3-3.9,16.1-3.2,22.9-4.7c8.4-1.8,12.7-7.4,19.9-11.4C313.6,231.1,323.3,229.8,329.1,231.5z"/>
		<path class="st1" d="M333.4,134.6C333.3,134.6,333.3,134.5,333.4,134.6C333.3,134.5,333.3,134.5,333.4,134.6
			C333.4,134.5,333.4,134.6,333.4,134.6z"/>
		<path class="st1" d="M332.7,134.5c0,0-0.1,0-0.1,0C332.6,134.5,332.6,134.5,332.7,134.5C332.6,134.5,332.7,134.5,332.7,134.5z"/>
		<path class="st1" d="M332.6,134.5c-0.1,0-0.2,0-0.2,0c0,0,0,0,0.1,0C332.5,134.5,332.5,134.5,332.6,134.5z"/>
		<path class="st2" d="M114.6,196.3c0,0.1-0.1,0.1-0.1,0.2C114.5,196.4,114.5,196.4,114.6,196.3z M115.1,195.5
			c0.1-0.1,0.1-0.2,0.2-0.3C115.3,195.3,115.2,195.4,115.1,195.5z M115.3,195.2c0.1-0.1,0.1-0.2,0.2-0.2
			C115.5,195,115.4,195.1,115.3,195.2z M115,195.7c-2.9,4.3-0.8,9.1,1,13.7l-1.2,0.5c-1.4-3.4-4.2-6.8-3.8-10.6
			c0.4-4.7,3.7-8.7,8.1-10.3c-7.1-7.4,1.2-22.2,3.4-30.5c2.6-10.3,9.5-17.7,19.1-22.2c-12.3-5.7,13.8-28.9,22.7-27.7
			c-1.6-15,21.4-25.7,32.8-28.3c4.8-1.1,9.7-1.6,14.6-1.5c3,0.1,4.1,0.3,6.7-1.2c1.3-0.8,2.5-2,3.8-2.8c7.3-5,15.6-9.1,24.5-10.5
			c4.6-0.7,9.3-0.6,13.9,0.3c4.7,0.9,5-0.9,9-2.8c1.4-0.6,2.8-1.1,4.3-1.3l0.4,3.4c-2.4,0.2-4.9,1.2-7.4,2.5c5.4,2,11.5,4.8,14.5,10
			c0-0.3,0.3-1.8,0.6-3.5l3.3,0.3c-0.2,1.3-0.4,2.7-0.4,4.2c-0.1,4.3,0.6,8.4,2,12.4c1.2,3.4,2.3,3.9-1.8,4.1
			c-1.3,0.1-7.7,0.3-10.9,0c-0.9-0.1-1.5-0.2-1.7-0.3c-1.6-1.3-1.7-1.1-0.4-2.9c1.8-2.4,5.6-2.2,7-5.8c1.4-3.5-0.2-6.8-2.9-9.1
			c-5.7-4.9-15.8-7.8-23.1-7.9c-0.1,0-0.1,0-0.2,0c-19.4,0-37.3,15.6-51.2,27.6c-3.6,3.2-8.4,6.5-11.2,10.4
			c-3.2,4.3-0.8,8.4,3.6,11.4c7.7,5.3,18.4-1.4,26.4-3.5c5.1-1.3,10.3-2.4,15.2-4.4c4.3-1.8,6.7-4.2,10.2-7.2c4.8-4,7.8-11.1-1-11.5
			c-6.8-0.3-16,4-20.3,9.2c-1.3,1.5-3,6.9-5.4,6.5c-1.5-0.3-1.7-3.6-2.8-4.6c-1.8-1.5-6.7-0.1-7.1-2.4c-0.4-2,7.8-3.1,9.4-3.7
			c6.6-2.5,12.5-6.6,19.4-8.4c13.3-3.3,24.8,2.9,35.7,9.2c1.3,0.7,2.5,1.5,3.8,2.2c7.3,4.2,18.8,2,24.6-3.9c1.1-1.1,2.7-5.5,4.3-5.1
			c4,1.2,0.2,5.9-0.9,7.3c-2.7,3.6-5.2,6.1-9.5,8c-3.4,1.5-8.1,2.1-10.4,5.4c-1.7,2.5-1.6,5.7,0.4,8.1c2.4,2.9,5.4,1.9,8.5,0.7
			c6.8-2.7,18.8-10.7,23-19.6l3,0.9c-1.7,3.8-3.4,8.4,0,11.3c2.8,2.3,8.5,2.3,10.5,6c2.1,3.8-1.3,2.7-4.3,1.9
			c-3.3-0.9-6.2-1.8-9.6-2c-6.1-0.3-12.2,1.2-17.7,4.1c-5.7,3-10.4,7.4-14.5,12.2c-1.9,2.2-3,4.5-4.5,6.9c-1,1.5-3,8.1-3.7,8.7
			c-1.8,1.6-7.8-2.4-7.5-4.3c0.2-1.3,4.5-4.2,5.4-5.3c1.7-2,3.1-4.1,4.1-6.6c3.3-8.6,2.1-27.9-7-33.1c-9.9-5.7-23.9,4.1-29.2,12.2
			c-3.9,6.1-4.7,13-5.2,20c-0.5,6.4-1.7,13-1.2,19.3c0.5,6.1,2.9,12.2,8.5,15.2c1.6,0.9,5,2.4,6.9,1.9c2.2-0.6,5.5-4.7,7.8-6
			c-1.2-0.6-2.2-1.5-3-2.4l3.2-1.2c1.3,1.4,3.2,1.9,6.2,0.6c5.5-2.4,11.5-4.7,15.4-9.4c1.8-2.1,4.3-11.1,7.1-7.3
			c4.8,6.5-9.8,15.5-13.9,17.6c-8.6,4.4-18.4,7.1-23.6,16c-1.6,2.8-2.8,5.8-3.7,9.1l-3.3-0.8c1-4.5,0.9-9-1.6-12.5
			c-6.7-9.4-19.5-3-25.4,3.6c-3.1,3.4-5.4,7.5-7,11.9c-0.4,1.1-2.7,14.3-2.6,14.2c-0.8,0-2.1-2.3-2.7-2.6c-0.6-0.3-3.9-0.3-4.2-1
			c-0.3-0.6,3.8-4.7,4.3-5.6c1-2.1,1.1-4.3,1.7-6.6c0.8-2.9,1.9-6.3,3.3-9c1.1-2,4.1-4.1,3.9-6.5c-0.4-4.7-9.1-2.9-11.8-2.4
			c-5.3,0.9-10.5,2.7-14.6,6.4c-2.1,1.9-3.4,3.9-4.5,6.5c-0.5,1.2-1.2,5.2-2.6,5.8c-1.6,0.6-1.1,0.1-2.1-0.8
			c-1.4-1.2-1.1-3.1-3.1-4.4c-0.7-0.4-4.2-1-5.3-1.4c2.1,0.2,14-10.1,14.4-10.5c5.7-4.2,12.8-6.7,19.8-6.9c6.2-0.2,15.1,3.3,20-2
			c4.5-4.8,6.2-13.7,7.6-19.8c1.1-4.9,2.8-15.1-0.8-19.4c-3.2-3.9-9.1-3-13.3-1.7c-6.5,1.9-12.1,6.2-16.6,11.1
			c-2.5,2.8-11.2,11.7-9.7,15.8c6.3-1.4,12.4-3,18.5-5.2c2-0.7,7.7-4.5,9.7-4.2c3.5,0.6,0.6,2.9-0.6,4.7c-1.3,2-3,12.9-5.3,12.2
			c-1.9-0.6-0.9-2.8-1.9-4.1c-1.3-1.7-3.3-2-5.3-2.1c-21.3-1.1-43.5,21.9-50.8,40.1c-0.2,0.6-0.4,1.2-0.6,1.8l-3-0.7
			c0.8-3.4,2-6.9,4-10.3c2.2-3.9,6.3-11.6,0.7-14.8c-5.1-2.9-8.5,3.4-10,7.1c-4.9,11.4-10,23.8-10,36.4l-2.5,0c0-0.3,0-0.5-0.1-0.7
			c-0.7-1-4.8-1.8-6-2.4c-1.3-0.6-10.7-6.5-6.5-7.8c2.1-0.6,10.1,5.8,12.3,6.6c0.8-7.6,2.5-15.2,5.3-22.3c2.6-6.6,6.7-13,6.2-20.4
			c-3.3,0.9-7.4,0.7-10.3,2.7c-1.9,1.3-5.8,7-4.9,0.2c1-7.3,14.1-5.8,18.5-10.1c2.7-2.6,11.8-13.3,8.2-17.2
			c-2.5-2.7-9.8,0.4-12.4,1.5c-16.5,6.7-19,22.3-23.4,37.6c-0.7,2.4-1.6,5.6-0.7,8.1c1.1,2.9,5.1,2.3,5.9,4.1c0.9,2-0.6,2-1.7,2.6
			c-1,0.5-3.3,0-4.5,0.5C117.8,192.7,116.1,194.1,115,195.7z M210,83.2c-10.8-0.1-21.3,3.1-30.4,8.9c-5.5,3.6-14,9.7-11.3,17.3
			c0.9,2.5,4.4,7.1-1.1,5.7c-2.4-0.6-2.9-2.4-5.9-2.2c-2.2,0.2-4.5,1.6-6.3,2.9c-3.8,2.6-7.2,6.2-10,9.8c-1.3,1.7-5.3,9.9,0.4,8.9
			c4-0.7,7.8-2.9,12-1.3c2.2,0.8,2.5,1.9,4.5,0.8c1.5-0.8,2.7-4.3,3.5-5.6c2.1-3.5,4.7-6.5,7.1-9.7C182.2,105.3,196.7,93.1,210,83.2
			z M184.8,138.4c4-2.6,8.8-10.3,7.6-15.1c-1.5-6.1-9.2-9.9-13.8-4.9c-3.1,3.5-11.9,11.1-9.1,16.3
			C171.8,139.1,181.1,140.8,184.8,138.4z M173.7,157c4-3.9,10.1-9.4,3.6-13.8c-3.8-2.6-14.6-4.1-17.1,1.4c0,0-0.1,0.2-0.2,0.4
			c-2.2,4.6-7.4,12.2-1.6,16.1C163.6,164.6,169.9,160.6,173.7,157z"/>
		<path class="st2" d="M329.6,278.5c-0.3,0,1.1,6.5,1.2,6.2c-0.8,1.6-3.8,1.4-5.4,2c-2.2,0.9-4.3,2.2-6.2,3.6c-3.4,2.5-7.3,6-6,10.7
			c1.1,3.7,5,6.7,6.7,10.4c1.5,3.2,1.8,7.2,2.2,11.1l-2.2,0.2c-0.5-5.5-2.7-11-6.2-15.3c-5.1-6.2-13-10-21.1-8.5
			c-1.5,0.3-8,3.7-8.7,3.2c0.2,0-1.2-5.9-1.8-5.2c1.5-3,19.7-3.5,23.2-4.3c5.4-1.3,10.4-3.7,15-6.8
			C321.4,285,328.8,278.2,329.6,278.5z"/>
		<path class="st1" d="M328.5,386.1c3.6,1.2,0.7,3.4-0.2,2.5l0,0C328,387.7,328.1,386.9,328.5,386.1z"/>
		<path class="st1" d="M327.8,159.7c0.4,1.1-1.7,5.8-1.8,7.2c-0.1,1.6,0,3.3,0.1,4.9c0.3,7.5,0.6,15.1,0.2,22.7l-2.5-0.1
			c0.1-2.5,0.1-5,0-7.5c-0.1-2.8-4.9-32.6-2.1-32.3C322.5,154.6,327.5,158.9,327.8,159.7z"/>
		<path class="st2" d="M303.6,206.2c-0.2,0-0.4-0.1-0.6-0.3C303.2,206.1,303.4,206.2,303.6,206.2z M323.3,132.3l0.9,3.1
			c-20,5.7-23.3,36.7-23.4,54.6c0,4.7,0.6,9,3.4,12.9c1.5,2,6.1,7.8-0.3,7.4c-7-0.5-6.4-18.6-6.3-23.3c0-3.6,1.8-8.9,1-12.3
			c-1.4-5.4-6.3-4.2-9.9-1.4c-8.3,6.6-11.1,17.7-10,27.8c0,0.3,0.1,0.6,0.1,0.9l-2.9,0.4c-0.7-5.1-1.8-10.1-3.7-14.9
			c-0.5-1.2-6.2-11.5-5.5-12.1c0.8-0.6,5.8,4.3,7.5,4.5c3.7,0.3,3.5-1.5,5.1-4.1c4.2-6.9,11.7-8.3,17.4-13.4
			c6.5-5.8,7.8-15.3,13.5-21.7C313.8,136.7,318.3,133.9,323.3,132.3z"/>
		<path class="st1" d="M307.6,370.4c-0.1,0-0.2,0.1-0.3,0.1c-0.1,0-0.2,0.1-0.3,0.1L307.6,370.4z"/>
		<path class="st2" d="M290.5,321.7c2,0.5,17.2,5.8,15.2,9.5c-0.7,1.3-12.1-5.4-14.8-6c-5.1-1.1-12.4-1.5-16.1,3
			c-1.5,1.9-2.1,4.7-3.4,6.9c-1.6,2.7-3.8,4.8-6,6.9c-2.5,2.3-5.3,4.4-7.7,6.8c-1.5,1.4-3.5,5.8-5.1,6.4c-2.8,1.1-0.8-0.7-1.4-2.3
			c-0.1-0.2-2.4-4-2.8-4.5c0.7,0,5.2-1.9,5.7-2.2c2.4-1.5,4.8-3,7-4.9c3.8-3.3,7-7.7,7.8-12.8c1.9-11.2-8.6-18.3-18.7-18.6
			c-5.7-0.1-11.3,1.9-16.4,4.4c-4.8,2.4-6.3,1.7-1.7-2.1c3.7-3,7.2-5.4,11.8-6.8c5.3-1.6,10.3-0.3,15.6-1c4.4-0.6,5.1-2.7,5.5-6
			l3,0.4c-0.1,0.6-0.1,1.2-0.2,1.8c-0.5,5.8-0.1,12.9,4.9,16.8C277.6,321.4,284.7,320.4,290.5,321.7z"/>
		<path class="st1" d="M308.4,261c-1.8,0.8-3.5,1.5-5.3,2.2c0,0,0,0,0,0c0,0,0,0-0.1,0c0,0,0,0-0.1,0c0,0-0.1,0-0.1,0c0,0,0,0-0.1,0
			c-0.1,0-0.2,0.1-0.3,0.1c0,0-0.1,0-0.1,0h0c0,0-0.1,0-0.1,0c0,0,0,0,0,0c-3.3,1.2-13.9,2.4-7.6-3.5c0.8-0.8,2.1-1.3,3.5-1.7
			C301.8,257.4,306.8,258,308.4,261z"/>
		<path class="st2" d="M302.4,263.5l0.8,2.6c-5.5,1.8-11.2,2.7-16.7,4.5c-11.3,3.8-17.1,17-18.5,28.3l-3-0.4
			c0.1-0.8,0.2-1.6,0.2-2.5c0.5-4.5,1.8-8.8,3.8-12.9c2-3.9,8.7-9.2,4.6-12.4c-1.4-1.1-3.3-2.1-5.4-3l2.8-1.5
			c0.8,0.3,1.7,0.5,2.4,0.7c2.8,0.6,19.6-0.6,12.4-5.5c-1.3-0.9-13.8-1.7-12-5c0.6-1.1,7.1,1,8,1.1c4.4,0.4,8.7-0.2,12.9-1.2
			c0.9-0.2,1.7-0.4,2.6-0.6l0.7,2.7c-1.4,0.4-2.7,1-3.5,1.7c-6.3,5.8,4.3,4.6,7.6,3.5c0,0,0,0,0,0c0,0,0.1,0,0.1,0
			C302.3,263.5,302.3,263.5,302.4,263.5z"/>
		<path class="st1" d="M302.8,263.3C302.7,263.3,302.7,263.3,302.8,263.3C302.7,263.3,302.7,263.3,302.8,263.3
			C302.7,263.3,302.7,263.3,302.8,263.3z"/>
		<path class="st1" d="M302.2,263.6C302.1,263.6,302.1,263.6,302.2,263.6C302.1,263.6,302.1,263.6,302.2,263.6z"/>
		<path class="st1" d="M283.2,222.5c2.2,1.1,6,8.7,5.8,11.1l0,0.1c-0.4,2.8-2.7,5.9-5.9,4.7c-3.6-1.4-3.6-7.3-3.7-10.4
			C279.4,224.4,279.8,220.8,283.2,222.5z"/>
		<path class="st2" d="M282.4,353.1l2.2,0.6c-0.7,1.2-1.4,2.5-2.2,3.6c-2.1,2.8-5.2,4.6-6.1,8c-1.8,6.1,1.4,8.7,6.3,9.5l-0.7,2.2
			c-0.5-0.1-1-0.3-1.4-0.5c-5.1-2.2-8.6-6.2-14.2-7.5c-5.4-1.2-11-0.9-16.3-3c-5.6-2.1-10.7-6-13.9-11.1c-1.5-2.4-2.6-5.2-3.1-8
			c-0.4-2.6,0.8-5.7-0.2-8c-0.9-2.2-2.9-2.6-4.6-4.2c-2.1-2-3.4-5-4.4-7.6c-2.2-5.6-3-11.6-3.2-17.6l1.7-0.1c0,0.4,0,0.7,0.1,1.1
			c0.7,6.2,1.9,21.1,9.6,23.4c2.2,0.6,18.1-9.1,18.7-4.9c0,0.1-9.2,4.2-10,4.9c-3.3,2.7-5.3,6.7-5.1,11c0.4,9.9,10,17.5,19,19.5
			c9.4,2,19.4-1.6,25.8-8.7C281.1,355.1,281.7,354.1,282.4,353.1z M234,337.4C234.2,337.8,234.4,337.4,234,337.4L234,337.4z"/>
		<path class="st1" d="M283,66.5c0,0-0.7,3.6-1.2,6.5c-0.3,1.7-0.6,3.1-0.6,3.5c-3-5.2-9.1-8-14.5-10c2.5-1.3,5-2.2,7.4-2.5
			C277.1,63.7,280,64.3,283,66.5z"/>
		<path class="st1" d="M282.1,296.9C282.1,296.9,282.1,296.9,282.1,296.9C282.1,296.9,282.1,296.9,282.1,296.9z"/>
		<path class="st1" d="M276.1,76.1c2.7,2.3,4.2,5.6,2.9,9.1c-1.4,3.6-5.1,3.3-7,5.8c-1.3,1.8-1.2,1.6,0.4,2.9
			c0.2,0.2,0.8,0.3,1.7,0.3l-0.3,2.7c-11-6.3-22.5-12.5-35.7-9.2c-6.9,1.7-12.8,5.8-19.4,8.4c-1.6,0.6-9.7,1.7-9.4,3.7
			c0.4,2.3,5.3,0.9,7.1,2.4c1.1,1,1.3,4.3,2.8,4.6c2.4,0.4,4.1-4.9,5.4-6.5c4.3-5.2,13.4-9.5,20.3-9.2c8.8,0.4,5.8,7.5,1,11.5
			c-3.5,2.9-5.9,5.4-10.2,7.2c-4.9,2-10.1,3.1-15.2,4.4c-8,2.1-18.7,8.8-26.4,3.5c-4.4-3-6.8-7-3.6-11.4c2.9-3.9,7.6-7.2,11.2-10.4
			c13.9-12,31.7-27.6,51.2-27.6c0.1,0,0.1,0,0.2,0C260.4,68.3,270.4,71.2,276.1,76.1z"/>
		<path class="st2" d="M177.9,245.6C177.9,245.6,178,245.6,177.9,245.6L177.9,245.6z M271,266.2l-2.8,1.5c-3.5-1.5-7.4-2.8-10.3-3.8
			c-5.2-1.9-10.9-2.5-15.1,1.9c-3,3.1-3.6,6.9-1.3,10.6c1.3,2.1,7.5,6.9,9.9,7.3c-8.4-0.7-16.6-6.5-23.2,1.9
			c-2.7,3.4-3.1,7.5-3.8,11.5c-0.9,4.8-2.3,7.8-2.1,12.4l-1.7,0.1c0-0.8-0.1-1.5-0.1-2.3c-3.3,3.7-11.7,3.9-16.3,3.4
			c-5.3-0.6-9.1-3.6-13-6.9c-1.2-1-3.5-4-5-4.1c-1.1-0.1-3.5,2-4.8,2.6c-3.7,1.8-8,2.6-12.1,2.6c-8.2-0.2-17.1-4.4-20.4-12.4
			c-2.1-5.1-1.1-6.6-6-9.5c-3.8-2.2-6.7-6-10.6-8c-2.1-1.1-4.1-1.3-6.1-1.7l0.4-2.3c0.9,0.2,1.7,0.2,2.5-0.1
			c2.2-0.9,1.8-3.9,0.7-7.2l3-1c0.6,1.7,1.2,3.5,1.9,5.2c2.9,7.7,6.9,13.1,15.8,11.8c3.5-0.5,7.1-2,9.7-4.6c4-3.9,3.4-8.6,4.2-13.7
			c0-0.1,0-0.1,0-0.2c0-0.1,0-0.3,0-0.4c-0.3-7.1,3.1-9.8,7.8-14.1c1.8-1.6,2.6-4.6,2-7l3.4-0.2c1.9,6.1,8.9,10,16,9.5
			c5.5-0.4,10.7-2.1,16.3-2.5c5.4-0.3,8.3-1.8,11.7-6.4c1.6-2.2,4.2-7.8,4.1-2.8c0,2.2-2.1,4.6-2,7.2c0,3.1,0.6,3.4,2.7,4.8
			c2.4,1.6,5.5,2,7.9,3.9c2,1.5,3.1,3.2,5.6,4c5.2,1.6,10.6-2.4,14.9-4.7c2.4-1.3,5.3-2.6,8.1-4l3,1.5c-0.9,0.6-1.7,1.2-2.5,2
			C257.5,258.1,264.9,264,271,266.2z M229.2,275.3c5.6-6.3,8.4-14-0.5-18.9c-6.9-3.8-17.3-5-24.9-3.9c-5.3,0.8-10.1,2.4-15.5,1.1
			c-3.9-0.9-7.9-3.8-12.1-3.3c-10,1.3-9.1,16.3-1.4,20c4,2,9.1,0.6,13.3,0.9c5.7,0.4,11.3,3,17.1,2.6c2.9-0.2,5.6-1.2,8.2-2.3
			c1.5-0.7,5.5-3.8,7.3-3.5c5.4,0.7,0.6,4.6-1.8,5.8c-3.6,1.9-6.6,3.5-8.2,7.4c-1.1,2.6-1.5,5.3-2.9,7.9c-0.6-3-0.8-6-3.2-8
			c-2.5-2-6.9-2.9-9.9-3.6c-7.1-1.6-14,0.6-20.9-0.7c-4.5-0.9-8-3.7-8.9,2.9c-0.3,2.2,1.3,4.4-1.8,4.9c-1.5,0.3-4-2.1-6-2.1
			c-6.2,0.1-6.7,5.8-3.9,10c6.7,10,21.1,10.6,31.1,5.7c-3.3-2.2-7.6-4.8-11.7-5c0,0-10.8,0.7-6.6-2.4c0,0,0,0,0,0c0,0,0,0,0.1,0
			c0,0,0,0,0,0c0,0,0.1,0,0.1-0.1c17.4-12.1,34.6,31.9,50.6,9.4c2.7-3.8,2.1-8.5,3.6-12.8C222.2,282.7,225.8,279.1,229.2,275.3z
			 M148.9,283.1C149,283.2,149.1,283,148.9,283.1L148.9,283.1z"/>
		<path class="st2" d="M259.7,110.7c3.9-0.5,7.4,0.3,4.5,3.9c-0.3,0.4-1.9,0.4-2.5,1.1c-0.9,1-1,3.5-1.2,4.8c-1.1,8-1.7,16.1-2.6,24
			c-0.5,4.2-1.1,12,1.7,15.1l-3.2,1.2c-6.3-7.6-1.4-24.3-0.6-32.4c0.3-3.3,0.8-6.7,0.8-10c0-3.9,0-2.2-2.3-4.1
			c-0.7-0.6-3.2-0.2-2-2.3C253,110.9,258.3,110.9,259.7,110.7z"/>
		<path class="st2" d="M250,226.9c0.7,1.2,7.5,8.1,7.3,8.5c-0.5,1.1-3.8-0.5-4.3-0.7c-0.1,1.6-1.5,5.6-3.8,5.4
			c-2.5-0.2-1.4-3.6-1.4-5.2c-0.1-6.2-3.6-9-9.1-11.3c-10.4-4.6-22.4-8.4-33.8-6.8c-5.5,0.8-13.7,2.9-19.7,6.7l-2.2-2.4
			c2.2-1.4,4.5-2.7,6.9-3.7c0.2-0.1,0.4-0.2,0.6-0.3c17.4-7.2,35.9-5.4,52.5,3c-1.7-6.1-2-12.7-1.8-19c-1.3,1.2-8.4,7.8-10.7,6.7
			c-2-1,6-7.5,7.1-9c2.5-3.4,5.1-8.3,6.2-13.3l3.3,0.8c-1.9,7.4-2,15.5-1.7,22.6C245.8,214.9,247,221.5,250,226.9z"/>
		<path class="st1" d="M248.3,348.5C248.3,348.5,248.3,348.5,248.3,348.5C248.3,348.5,248.2,348.5,248.3,348.5z"/>
		<path class="st1" d="M189.8,217.3c-2.4,1.1-4.7,2.3-6.9,3.7l-1.8-3.1c0.1,0,0.2,0,0.3-0.1c1.7-0.9,1.4-12.3,2-14.7
			c0.7-2.5,1.7-5,2.9-7.3c1.1-2.2,5.4-6.2,5.9-8.4c1.4-6.2-6.5,2.4-7.5,3.5c-3.9,4.1-7.7,9.8-12.7,12.7c-9.3,5.3-19.8-2.6-17.3-12.5
			c0.1-0.6,0.3-1.2,0.6-1.8c7.3-18.2,29.5-41.2,50.8-40.1c2,0.1,4,0.4,5.3,2.1c1,1.3,0.1,3.5,1.9,4.1c2.3,0.7,4-10.2,5.3-12.2
			c1.2-1.9,4.2-4.1,0.6-4.7c-2-0.4-7.8,3.4-9.7,4.2c-6.1,2.2-12.2,3.8-18.5,5.2c-1.4-4.1,7.3-13.1,9.7-15.8c4.5-5,10-9.2,16.6-11.1
			c4.2-1.2,10.1-2.2,13.3,1.7c3.5,4.3,1.9,14.5,0.8,19.4c-1.4,6.2-3.1,15-7.6,19.8c-4.9,5.3-13.8,1.8-20,2c-7,0.2-14.2,2.7-19.8,6.9
			c-0.4,0.3-12.3,10.6-14.4,10.5c-0.1-0.1-0.2-0.1-0.3-0.2c0,0.1,0.1,0.2,0.3,0.2c1,0.5,4.6,1,5.3,1.4c2,1.3,1.7,3.2,3.1,4.4
			c1,0.9,0.6,1.4,2.1,0.8c1.4-0.5,2.1-4.6,2.6-5.8c1.1-2.6,2.4-4.6,4.5-6.5c4.1-3.7,9.2-5.5,14.6-6.4c2.7-0.5,11.3-2.3,11.8,2.4
			c0.2,2.4-2.8,4.5-3.9,6.5c-1.4,2.7-2.5,6-3.3,9c-0.6,2.3-0.7,4.5-1.7,6.6c-0.5,1-4.6,5-4.3,5.6c0.3,0.7,3.6,0.7,4.2,1
			c0.6,0.3,1.9,2.6,2.7,2.6c-0.2,0,2.2-13.2,2.6-14.2c1.6-4.3,3.9-8.4,7-11.9c5.9-6.6,18.7-13,25.4-3.6c2.4,3.4,2.6,8,1.6,12.5
			c-1.1,5-3.7,9.9-6.2,13.3c-1.1,1.5-9.1,8-7.1,9c2.3,1.1,9.4-5.5,10.7-6.7c-0.2,6.3,0.1,12.9,1.8,19c-16.7-8.4-35.2-10.2-52.5-3
			C190.3,217.1,190,217.2,189.8,217.3z"/>
		<path class="st1" d="M234,337.4C234,337.4,234,337.5,234,337.4L234,337.4z"/>
		<path class="st1" d="M166.2,291C166.2,291,166.2,291,166.2,291l-0.2,0.1c0,0,0,0,0,0c-4.2,3.1,6.5,2.4,6.6,2.4
			c4.1,0.2,8.4,2.8,11.7,5c-10,4.9-24.4,4.3-31.1-5.7c-2.8-4.2-2.3-9.9,3.9-10c2,0,4.4,2.3,6,2.1c3-0.5,1.5-2.6,1.8-4.9
			c0.9-6.6,4.3-3.8,8.9-2.9c6.9,1.3,13.9-0.9,20.9,0.7c3.1,0.7,7.5,1.6,9.9,3.6c2.4,2,2.6,5,3.2,8c1.4-2.6,1.8-5.3,2.9-7.9
			c1.6-3.9,4.6-5.5,8.2-7.4c2.4-1.2,7.2-5.1,1.8-5.8c-1.8-0.2-5.7,2.8-7.3,3.5c-2.6,1.1-5.3,2.1-8.2,2.3c-5.8,0.4-11.4-2.1-17.1-2.6
			c-4.3-0.3-9.3,1-13.3-0.9c-7.7-3.7-8.6-18.7,1.4-20c4.2-0.5,8.2,2.3,12.1,3.3c5.3,1.3,10.2-0.4,15.5-1.1c7.7-1.1,18,0.1,24.9,3.9
			c8.9,4.8,6.1,12.6,0.5,18.9c-3.4,3.8-6.9,7.4-8.7,12.4c-1.5,4.3-1,9-3.6,12.8C200.8,322.9,183.6,278.9,166.2,291z"/>
		<path class="st1" d="M179.6,92.1c9-5.9,19.6-9,30.4-8.9c-13.3,9.8-27.8,22.1-37.5,35.3c-2.4,3.3-5,6.2-7.1,9.7
			c-0.8,1.3-2,4.8-3.5,5.6c-2,1.1-2.2,0-4.5-0.8c-4.2-1.5-8,0.6-12,1.3c-5.7,1-1.7-7.2-0.4-8.9c2.8-3.6,6.2-7.2,10-9.8
			c1.8-1.2,4-2.7,6.3-2.9c3-0.2,3.5,1.5,5.9,2.2c5.4,1.5,1.9-3.2,1.1-5.7C165.6,101.8,174.1,95.7,179.6,92.1z"/>
		<path class="st1" d="M192.5,123.3c1.2,4.8-3.6,12.5-7.6,15.1c-3.8,2.4-13,0.7-15.3-3.6c-2.8-5.2,6-12.9,9.1-16.3
			C183.2,113.5,190.9,117.3,192.5,123.3z"/>
		<path class="st2" d="M184.8,190.9c1-1.1,8.9-9.7,7.5-3.5c-0.5,2.2-4.8,6.2-5.9,8.4c-1.2,2.3-2.2,4.8-2.9,7.3
			c-0.7,2.4-0.4,13.8-2,14.7c-0.1,0-0.2,0.1-0.3,0.1c-1.6,0-4.4-6.2-6.3-7.3c-3.6-2.1-8.1-1.7-11.5,0.5c-5.6,3.5-11.6,20.3-1.3,21.4
			c5.1,0.6,10.3-3.5,14-6.4c2.3-1.8,4.5-3.4,6.9-5l2.2,2.4c-3.1,2-5.7,4.4-7,7.4c-1.3,3.1-1.4,6.1-0.6,8.6l-3.4,0.2
			c-0.5-1.6-1.7-3-3.8-3.4c-5.5-1.1-10.1,6.1-13.7,9c-1.5,1.2-2.7,2.1-4.6,2.3c-1,0.1-2.7-0.7-3.5-0.7l1.1-2.9
			c0.6,0.3,1.3,0.4,2.1,0.3c8.6-0.9,2.2-10.7,0.5-14.1c-2.5-5.1-2.3-10.5-2.1-16.1c0.3-8.5-0.2-16,1.5-23.6l3,0.7
			c-2.4,9.8,8.1,17.7,17.3,12.5C177.1,200.7,180.8,195.1,184.8,190.9z"/>
		<path class="st1" d="M181.2,217.9l1.8,3.1c-2.4,1.5-4.6,3.2-6.9,5c-3.7,2.9-8.9,7-14,6.4c-10.3-1.1-4.3-17.9,1.3-21.4
			c3.4-2.1,7.9-2.6,11.5-0.5C176.7,211.7,179.5,217.9,181.2,217.9z"/>
		<path class="st1" d="M160,144.9c0.1-0.2,0.2-0.4,0.2-0.4c2.5-5.4,13.3-4,17.1-1.4c6.5,4.4,0.4,9.9-3.6,13.8
			c-3.8,3.7-10.1,7.7-15.3,4.1C152.6,157,157.8,149.5,160,144.9z"/>
		<path class="st1" d="M174.2,239.7c0.7,2.4-0.2,5.3-2,7c-4.7,4.3-8.1,7-7.8,14.1c-0.4-5.5-0.6,3.6,0,0.6c-0.8,5-0.3,9.7-4.2,13.7
			c-2.6,2.5-6.1,4.1-9.7,4.6c-8.9,1.3-12.8-4.1-15.8-11.8c-0.7-1.8-1.3-3.5-1.9-5.2c-2.8-8.1-4.7-15.9-5-24.8
			c-0.2-8.6,6-13.2,7.7-21.2c1,1.2,7.7,6.1,8.5,2.6c0.4-1.6-2.2-1.4-3-1.9c-3.7-2-4.6-2.6-4.8-7c0-0.5,0-1.1,0-1.6
			c0-12.6,5.1-25,10-36.4c1.6-3.7,4.9-10,10-7.1c5.6,3.2,1.6,10.9-0.7,14.8c-2,3.5-3.2,6.9-4,10.3c-1.7,7.5-1.2,15.1-1.5,23.6
			c-0.2,5.5-0.4,11,2.1,16.1c1.7,3.4,8.1,13.2-0.5,14.1c-0.8,0.1-1.5,0-2.1-0.3c-3.4-1.4-4-7.3-3.3-10.3c0.3-1.4,3.2-5.3,1-6.2
			c-1.5-0.6-2.8,1.4-4.3,1.7c-1.5,0.3-4.9-2.1-5.9-0.6c-0.7,1.1,2.5,4.5,2.8,5.4c2.1,5.7-0.3,13,1.1,19c0.6,2.4,4.3,14.5,7.8,13.9
			c2.8-0.5-2.9-10.1-3-13c-0.1-3,0.1-6.2,2.4-6.8c0.1,0,0.2,0,0.3,0c0.9,0,2.5,0.8,3.5,0.7c1.9-0.2,3.1-1.1,4.6-2.3
			c3.5-2.8,8.2-10,13.7-9C172.5,236.7,173.7,238.1,174.2,239.7z"/>
		<path class="st1" d="M169.3,180.9c0,0,0.1,0.1,0.3,0.2C169.4,181,169.3,181,169.3,180.9z"/>
		<path class="st1" d="M166.1,291C166.1,291,166.1,291.1,166.1,291C166.1,291.1,166.1,291.1,166.1,291L166.1,291z"/>
		<path class="st1" d="M164.4,260.8c0,0.1,0,0.3,0,0.4c0,0.1,0,0.1,0,0.2C163.8,264.4,164,255.3,164.4,260.8z"/>
		<path class="st1" d="M156.5,137.6c3.5,3.9-5.6,14.7-8.2,17.2c-4.4,4.2-17.5,2.8-18.5,10.1c-0.9,6.8,3,1.1,4.9-0.2
			c2.9-2,7-1.8,10.3-2.7c0.5,7.3-3.6,13.8-6.2,20.4c-2.9,7.1-4.5,14.7-5.3,22.3c-2.2-0.8-10.2-7.3-12.3-6.6
			c-4.2,1.3,5.2,7.2,6.5,7.8c1.3,0.6,5.3,1.4,6,2.4c0.1,0.1,0.1,0.4,0.1,0.7c0,1.5-1,4.6-1.3,5.5c-1.4,5.6-5.1,9.5-7,14.7
			c-3.1-5.6-6.4-8.3-7.8-14.8c-0.4-1.6-1-3.2-1.7-4.9c-1.9-4.6-3.9-9.4-1-13.7c1.1-1.7,2.8-3.1,4.7-3.8c1.2-0.5,3.6,0,4.5-0.5
			c1.2-0.6,2.6-0.6,1.7-2.6c-0.8-1.8-4.8-1.1-5.9-4.1c-1-2.5,0-5.7,0.7-8.1c4.4-15.3,6.9-30.9,23.4-37.6
			C146.7,138,154.1,134.9,156.5,137.6z"/>
		<path class="st2" d="M149.7,243.9l-1.1,2.9c-0.1,0-0.2,0-0.3,0c-2.3,0.7-2.6,3.9-2.4,6.8c0.1,2.9,5.9,12.5,3,13
			c-3.5,0.6-7.2-11.4-7.8-13.9c-1.4-6,1-13.3-1.1-19c-0.4-1-3.5-4.4-2.8-5.4c1-1.5,4.4,0.9,5.9,0.6c1.5-0.3,2.8-2.3,4.3-1.7
			c2.2,0.9-0.7,4.8-1,6.2C145.6,236.7,146.3,242.5,149.7,243.9z"/>
		<path class="st2" d="M118.4,263.8c1.5,2.4,5,6.4,8.2,7.1l-0.4,2.3c-2.2-0.4-4.3-0.9-6.4-2.6c-3.1-2.7-5.2-6.6-6.8-10.3
			c-1.4-3.3-3.3-8.2-1.9-11.8c1.4-3.6,2.1-1.5,1.1-5c-0.5-2-2.4-3.9-3.3-5.9c-1.9-4.5-2.7-9.6-1.1-14.3c1.3-3.9,7.1-7,7.4-9.6
			c0.1-1.3-0.2-2.6-0.7-3.8l1.2-0.5c0.7,1.7,1.3,3.3,1.7,4.9c1.4,6.4,4.8,9.2,7.8,14.8c1.9-5.2,5.7-9.1,7-14.7
			c0.2-0.9,1.3-4,1.3-5.5l2.5,0c0,0.5,0,1.1,0,1.6c0.2,4.4,1.1,5,4.8,7c0.8,0.4,3.4,0.2,3,1.9c-0.8,3.5-7.6-1.4-8.5-2.6
			c-1.7,8-8,12.6-7.7,21.2c0.2,8.9,2.2,16.7,5,24.8l-3,1c-1.1-3.4-3-7.2-3.5-9.1c-1.7-6.6-0.8-13.6-2.7-20c-1.7-5.8-7-9.7-8.6-15.4
			c-8.5,5.6-3.3,16.9,0.8,23.5c0.6,1,3.5,4.2,3.4,5.3c-0.3,2.9-2.5,1-4,2.4c-2.8,2.7,1,9.8,2.7,12.8c0,0,0,0.1,0.1,0.2c0,0,0,0,0,0
			c0,0,0,0,0,0c0,0,0.1,0.1,0.1,0.2C118.3,263.6,118.3,263.7,118.4,263.8C118.4,263.7,118.4,263.8,118.4,263.8
			C118.4,263.8,118.4,263.8,118.4,263.8z M118.7,264.3c0-0.1-0.1-0.2-0.2-0.3C118.5,264,118.6,264.2,118.7,264.3z M118.9,264.6
			c0,0,0-0.1-0.1-0.1C118.8,264.5,118.9,264.6,118.9,264.6z"/>
		<path class="st1" d="M129.8,263.6c1.1,3.3,1.5,6.3-0.7,7.2c-0.8,0.3-1.6,0.3-2.5,0.1c-3.3-0.8-6.7-4.7-8.2-7.1c0,0,0,0,0,0
			c0,0,0,0,0-0.1c0-0.1-0.1-0.1-0.1-0.2c0-0.1-0.1-0.1-0.1-0.2c0,0,0,0,0,0c0,0,0,0,0,0c-0.1-0.1-0.1-0.2-0.1-0.2
			c-1.8-3-5.6-10.2-2.7-12.8c1.5-1.4,3.7,0.5,4-2.4c0.1-1.1-2.8-4.3-3.4-5.3c-4.1-6.6-9.3-18-0.8-23.5c1.7,5.8,6.9,9.6,8.6,15.4
			c1.9,6.4,1,13.5,2.7,20C126.9,256.4,128.7,260.2,129.8,263.6z"/>
		<path class="st1" d="M118.8,264.5c0,0,0.1,0.1,0.1,0.1C118.9,264.6,118.8,264.5,118.8,264.5z"/>
		<path class="st1" d="M118.5,264c0.1,0.1,0.1,0.2,0.2,0.3C118.6,264.2,118.5,264,118.5,264z"/>
		<path class="st1" d="M118.4,263.7C118.4,263.8,118.4,263.8,118.4,263.7C118.4,263.8,118.4,263.7,118.4,263.7z"/>
		<path class="st1" d="M115.3,195.2c0.1-0.1,0.1-0.2,0.2-0.2C115.5,195,115.4,195.1,115.3,195.2z"/>
		<path class="st1" d="M115.1,195.5c0.1-0.1,0.1-0.2,0.2-0.3C115.3,195.3,115.2,195.4,115.1,195.5z"/>
		<path class="st1" d="M114.6,196.3c0,0.1-0.1,0.1-0.1,0.2C114.5,196.4,114.5,196.3,114.6,196.3z"/>
	</g>
</g>
</svg>
